/* XPM */
static char *result[] = {
/* columns rows colors chars-per-pixel */
"64 64 235 2 ",
"   c #211F1E",
".  c #2E1F16",
"X  c #301808",
"o  c #24211F",
"O  c #2B231E",
"+  c #38261A",
"@  c #262221",
"#  c #2B2523",
"$  c #2D2826",
"%  c #2E2B29",
"&  c #312625",
"*  c #322926",
"=  c #3C2C23",
"-  c #332C2A",
";  c #392E2B",
":  c #322728",
">  c #35312D",
",  c #3B322D",
"<  c #363231",
"1  c #3C3533",
"2  c #3D3836",
"3  c #3D3A39",
"4  c #3E3739",
"5  c #4F1E00",
"6  c #4D290C",
"7  c #49250B",
"8  c #532C0D",
"9  c #5B2F0B",
"0  c #582502",
"q  c #5C310C",
"w  c #5A300A",
"e  c #442C1C",
"r  c #482B16",
"t  c #542C12",
"y  c #4A311C",
"u  c #5C3312",
"i  c #53321C",
"p  c #583519",
"a  c #682A04",
"s  c #742C02",
"d  c #63340D",
"f  c #6B360E",
"g  c #6D3A0C",
"h  c #663407",
"j  c #71360B",
"k  c #743B0B",
"l  c #7B3D0B",
"z  c #793505",
"x  c #643412",
"c  c #6B3611",
"v  c #643913",
"b  c #6D3A12",
"n  c #653B1A",
"m  c #743B12",
"M  c #7A3D11",
"N  c #443124",
"B  c #43342A",
"V  c #4D3A2C",
"C  c #4B3627",
"Z  c #583C27",
"A  c #433935",
"S  c #4B3C33",
"D  c #433D3A",
"F  c #463A37",
"G  c #543E32",
"H  c #432F23",
"J  c #653E26",
"K  c #7D410C",
"L  c #77410D",
"P  c #744214",
"I  c #7B4213",
"U  c #76461B",
"Y  c #68401C",
"T  c #5C432C",
"R  c #46403E",
"E  c #4B413D",
"W  c #4F4235",
"Q  c #594537",
"!  c #674528",
"~  c #794B27",
"^  c #654B38",
"/  c #6C513B",
"(  c #7A5838",
")  c #784F30",
"_  c #4B4542",
"`  c #484443",
"'  c #514643",
"]  c #534A46",
"[  c #554D4A",
"{  c #5A4E4A",
"}  c #5A4B44",
"|  c #59514C",
" . c #5B5553",
".. c #625C5A",
"X. c #675A56",
"o. c #695547",
"O. c #73645D",
"+. c #6B6158",
"@. c #6B6462",
"#. c #6E6A68",
"$. c #736966",
"%. c #79726E",
"&. c #7B7473",
"*. c #7F7A78",
"=. c #833A08",
"-. c #943A06",
";. c #803F10",
":. c #822D00",
">. c #A83E02",
",. c #83420B",
"<. c #8B460B",
"1. c #8D4A0D",
"2. c #87460A",
"3. c #9B4C07",
"4. c #934C0D",
"5. c #9A4D09",
"6. c #934508",
"7. c #9C510C",
"8. c #96510B",
"9. c #834312",
"0. c #8A4513",
"q. c #834C15",
"w. c #8B4D14",
"e. c #844B19",
"r. c #934B13",
"t. c #954B13",
"y. c #8D5215",
"u. c #8C5219",
"i. c #84511A",
"p. c #935516",
"a. c #9B5413",
"s. c #965817",
"d. c #9C5A15",
"f. c #935619",
"g. c #955919",
"h. c #9C5B1A",
"j. c #9C531B",
"k. c #A44C06",
"l. c #B94C05",
"z. c #A35107",
"x. c #A45309",
"c. c #AA5509",
"v. c #AD590A",
"b. c #AA5306",
"n. c #B45C0A",
"m. c #B55107",
"M. c #A25514",
"N. c #A45B14",
"B. c #AA5D15",
"V. c #A65C19",
"C. c #B75C18",
"Z. c #BA610C",
"A. c #A3621B",
"S. c #AC6718",
"D. c #B36215",
"F. c #BB6514",
"G. c #B26B15",
"H. c #B36219",
"J. c #BC6B1A",
"K. c #BB671A",
"L. c #B87518",
"P. c #874C24",
"I. c #865329",
"U. c #965826",
"Y. c #855A35",
"T. c #9A6630",
"R. c #A96929",
"E. c #B66A23",
"W. c #B9752E",
"Q. c #A55D1F",
"!. c #C65804",
"~. c #D55A05",
"^. c #C25811",
"/. c #DB6505",
"(. c #D66308",
"). c #C36914",
"_. c #C4621A",
"`. c #C76817",
"'. c #D96A1B",
"]. c #CD731C",
"[. c #C3791A",
"{. c #D3761A",
"}. c #DC7B1B",
"|. c #D7771A",
" X c #E86A0A",
".X c #E46D17",
"XX c #E17D1B",
"oX c #EA741B",
"OX c #FC7719",
"+X c #FA6D0A",
"@X c #C87528",
"#X c #D57827",
"$X c #CA7A33",
"%X c #D07028",
"&X c #E17827",
"*X c #FB7E25",
"=X c #846750",
"-X c #847D7B",
";X c #817A77",
":X c #8C7869",
">X c #B88039",
",X c #DE801E",
"<X c #C4811A",
"1X c #E5821D",
"2X c #EC851D",
"3X c #F28A1E",
"4X c #CB893C",
"5X c #DB8431",
"6X c #E38321",
"7X c #EA8522",
"8X c #EC8A2B",
"9X c #E88727",
"0X c #F6882B",
"qX c #FA9329",
"wX c #F98836",
"eX c #FE9B36",
"rX c #FE9E3B",
"tX c #F49535",
"yX c #E98F36",
"uX c #FFA13F",
"iX c #89817E",
"pX c #D28D42",
"aX c #FD9545",
"sX c #FEA344",
"dX c #FFA94C",
"fX c #FCA849",
"gX c #FFB24C",
"hX c #FFAD53",
"jX c #FEB65A",
"kX c #EBA450",
"lX c #FEBE65",
"zX c #8B8482",
"xX c #8B8785",
"cX c #928B88",
"vX c None",
/* pixels */
"vXvXvXvXvXvXvXvXvXvXvXvXvXvXvXvXvXt.1.=.s s z z :.-.-.-.-.m.k.l.l.^.^.l.l.~.^.'.'.&X$X%XpXpXW.vXvXvXvXvXvXvXvXvXvXvXvXvXvXvXvXvX",
"vXvXvXvXvXvXvXvXvXn c a a 0 j s s s s s a s :.:.-.>.>.>.>.l.!.~.~.~.~.~.^.+X+XOX*XwXaXaXjXjXgXgXfXfX&X#XC.Q.P.vXvXvXvXvXvXvXvXvX",
"vXvXvXvXvXvX1 e.9.5 0 0 5 5 a a s s :.z a s -.>.>.!.^.!.!.~.~.~.~./. X X X+XOXOX0XaXaXwXjXjXgXgXgXgXwX*X>.*XwX_.e.G vXvXvXvXvXvX",
"vXvXvXvXvXvXR ) e.j a 0 0 5 0 a z =.6.k.l.!.~.~.~./.~.~./.(.~./. X X X X X X X+XOX*X0XwXfXsXsXfXdXdXwXwX'.wX].a.~ D ] vXvXvXvXvX",
"vXvXvXvXvX3 D _ ] } o.o.) ~ 0.M.N.b.!.!.!.!.!.~.!.~./. X~.(./. X/.(.(.(. X.XoXOXOXOX*X*XwX*XwXyX5X$XR.T.) ^ A 3 2 D ' vXvXvXvXvX",
"vXvXvXvXvX3 E _ ' | o...$.*.zXzXcXcXiXiX:X=X=X( Y.I.) ) ! ~ I.~ P.P.P.P.I.P.P.U ! T J C N H * : $ # % % - , 2 3 4 D { vXvXvXvXvX",
"vXvXvXvX3 F E E ' {  .X.$.;XzXzXcXcXcXxX-X&.#.@... .[ ] _ D F 2 4 < - % % % # : # @ @ # # @ @ @ @ @ @ $ % > 1 2 2 D } X.vXvXvXvX",
"vXvXvXvX3 F F E ' { X.@.&.-XiXxXcXcXxX-X*.%.#.@...| { ' _ F D A 1 < - % % # % # % # # % # # @ @ @ @ # # % % < 2 A D ] X.vXvXvXvX",
"vXvXvXvX3 D R E ] |  .@.&.-XiXcXxXzXiX-X&.%.#. . .| } ' E A A B ; ; - : % $ $ $ $ $ $ $ $ # # @ # o # # $ * > 2 D D R ..vXvXvXvX",
"vXvXvXvXS R R ' [  ...@.%.;X;XcXxXzXiX;X%.#.@... .[ ] _ R A A A B < ; - * * $ O $ # O $ # # # # # # # $ $ $ > , A D ` o.vXvXvXvX",
"vXvXvXvX.XH.) Q [  .@.#.&.*.-XiXzXiX-X*.&.#.@... .[ ] ` D D 1 , 1 > - - $ $ # $ $ $ $ $ $ # # # # # $ O * > , W V ! i.S.vXvXvXvX",
"vXvXvXvXoX&X&X$XW.T.( / +.=X%.-XiXzX-X&.#.#... . .[ ] ` R A 2 , ; > > % * & $ $ $ $ $ O # # # $ $ * C p T U y.s.w.k 8.S.vXvXvXvX",
"vXvXvXoX&X*X@XkXaXjXfXkX4X>XU k g v Y ! ! ! ! ! T W T y V V C C N N e N y e e i i i i t p x v v L v p.p.y.s.d.s.s.P 8.N.L.vXvXvX",
"vXvXvX.X.X9X@XhXuXhXhXjXjXlX$XeXyX5X@XS.h.y.P k P 7 w w w w w w w 9 w w w q 6 f h f b d f g m m U v g.g.y.s.s.s.d.L 8.d.L.vXvXvX",
"vXvXvX'.C.&X5XdXsXhXhXjXjXjX$XtXeXtX8XyX8X5X{.[.].q.A.d.d.y.0.2.,.k L g k P 8 l k m m k f j m m L Y y.g.y.s.s.d.d.y.2.d.G.vXvXvX",
"vXvX'.C.K.5XtXdXfXdXhXjXhXkX#XtXtX8X8X9X9X9X5X{.|.q.D.S.K.N.N.N.7.4.8.1.1.8.w t.t.t.r.0.;.k M M L P U g.p.p.s.d.d.s.L d.S.<XvXvX",
"vXvX'._.'.@XtXdXdXdXdXhXhXpX6X8XqX8X8X#X#X#X#X{.|.U J.H.S.N.B.M.4.4.6.1.1.t.v t.t.0.t.;.;.;.;.;.I P P p.p.p.d.s.d.A.L p.S.<XvXvX",
"vXvX'.'.#X@XrXsXsXsXfXhXhX$X8X8X8XqX6XR.Z p.].{.|.I H.H.B.B.N.a.4.4.4.6.1.4.d t.t.t.r.0.;.;.;.;.q.q.v p.s.y.s.p.a.A.P 8.N.L.vXvX",
"vXZ '.'.#X$XrXrXsXuXsXdXfXR.9X9X9X8X#X~ i i.].].].I C.H.V.B.N.5.a.4.<.1.2.1.d r.t.r.P.0.;.M ;.;.I I q g.s.y.s.s.a.h.q.w.d.G.^ vX",
"S ! '.&X#XyXrXrXuXrXuXuXrXE.&X2X6X6X{.f.n H.).).).P H.B.M.N.a.5.a.6.<.1.<.4.d r.-.t.r.-.;.M ;.M I I x y.y.y.d.p.8.d.y.L d.L.! { ",
"D S U..X#XtXsXeXrXeXeXuXtXE.}.}.|.{.`.).D.).).F.J.I D.N.M.N.5.a.4.<.6.1.2.r.d 0.P.r.0.r.;.M ;.M I M x u.p.y.s.s.p.s.g.m d.U ^ #.",
"A D E ) U.rXsXrXuXrX0XeXyX`.{.|.|.].F.F.F.).).).F.I H.N.M.M.4.7.4.2.<.2.1.1.d 0.0.;.0.0.;.j ;.j I I n I y.y.y.s.w.p.u.u p Q O.O.",
"A A 3 D Q / T.4XyXfXeXeX5X].|.}.|.].^.).).).).F.D.I B.M.a.a.5.r.2.<.6.2.4.r.c ;.0.;.0.0.M c M M M U b m y.i.i.I P p e B E { +.O.",
"2 D 3 2 D ` [ } ^ o.T.R.R.E.].}.,X(.).).).).).).D.9.B.7.M.t.t.=.2.6.2.,.<.0.c ;.0.;.0.9.M s M m m m v u n i + = ; A A A E { +.$.",
"2 3 D 3 D E [ [ [ | | | } } Q / ( Y.U.U.U.h.V.B.M.9.N.t.M.5.t.<.<.<.=.,.;.,.c m M m n n p i i e = * : % % $ $ $ : , 1 A F { O.O.",
"vX3 3 3 R ` ] [ [ | [ | [ ' ] _ E E E E D S D W S A S S S S V C N C B H B B = ; : : : : & & @ o o @ # @ # # $ $ : - ; 1 F } X.vX",
"vXj.Q A R R ` ` ' ] ] ] ' ' ' ' W R 3 3 2 2 2 2 4 A 1 < - - - % : : & : : : : # & @ @ @ @ @ @ @ o @ @ # # # $ % : * ; 1 F { R.vX",
"vX_.C.I.S R D ` ` ` _ _ _ ' _ _ D R R A 1 1 A 2 4 1 1 1 < < > ; - : : = : : : : & : : @ @ @ @ @ @ # # @ # % # # $ - , C ~ S.[.vX",
"vX_.^.%XJ.J.I.T E ` E R R E R R D D D 3 3 2 2 2 4 1 4 , 1 ; ; - - * & & : : & $ # & # & & @ @ o o # @ # # # % - C U i.u.y.G.<XvX",
"vX`.'.#X].3X1XXXL.u.! Z S S R R R 3 D 3 3 3 1 1 1 ; , , ; - - : * & & : : & & & & . # # @ # O o @ @ # & y n Y i.p.p.s.u.w.G.<XvX",
"vX_.`.%X].3X2X2X&X1X1X[.g L g q p p W y C B W , A B ; ; ; : : : & : & % % $ $ & & & : + e e r i u x f 6 q.q.q.y.y.s.d.y.w.G.<XvX",
"vX_.`.%X{.qX3X2X1X7X7X,Xw.v.Z.v.d.2.K k h w w w 6 7 8 t t t t 6 8 8 8 8 u u t 7 x x c d d x c c c c m 6 q.y.w.y.p.h.h.s.y.L.<XvX",
"vX_._.%X{.qX3X2X,X3X8X,X1.v.v.Z.Z.n.n.n.v.x.8.1.f f k k h d h w w w w w h d 8 7 x x c x a c c c M m m t q.p.p.s.p.h.A.p.s.G.L.vX",
"vX_._.%X).3X3X2X1X8X3X,X1.n.n.Z.Z.c.z.z.7.z.3.c.K 2.2.1.2.=.,.l l L l l k k 9 8 c m M m c c c j M M m t y.s.p.g.s.h.A.u.p.G.vXvX",
"vXvX_.`.).3X2X2X2X7X2X2X1.Z.n.m.Z.z.c.7.3.b.x.c.K <.<.<.,.,.,.l l l l l l l d d M m M M m j m m m m m t y.s.p.p.a.h.V.u.d.S.vXvX",
"vXvXC.].J.1XXXXX1X3X,X1X1.Z.).Z.Z.b.v.v.c.v.x.x.K q.2.1.=.2.2.K ,.l l l I k d d M M M ;.m c j m M I M t y.p.y.p.w.d.A.i.d.G.vXvX",
"vX! C.%XJ.}.}.|.,X1X,X1Xy.n.Z.n.v.b.b.c.c.c.7.z.l 2.2.2.,.2.=.,.l l l L l l x x M M M M m c c m m I M t y.f.y.y.y.d.A.i.N.G.T vX",
"vXG C._.F.XX2X|.|.,X,X,X1.n.v.b.b.z.3.x.x.x.7.3.L 2.1.,.2.,.,.l K k z z k k v f M M M m m c m j m I P u y.w.w.w.y.d.A.I N.A.W vX",
"vXS j.C.J.}.2X}.{.,X1X,Xr.v.c.c.b.z.3.c.x.x.5.3.k ,.1.<.,.=.,.L k l j k k I h x M m M m j c m c m I M u y.q.s.y.p.d.A.i.N.i.{ vX",
"vXA J Q.F.1X1X}.{.,X1X,Xr.x.z.k.3.3.3.3.z.3.3.z.K ,.r.2.,.2.K ,.L z k l K K d d M m m m j m j m m M M n y.y.s.y.y.h.A.q.p.T +.vX",
"vXvX2 ! U.|.XXXX{.}.1X,Xd.x.z.5.3.3.3.3.3.3.5.z.K ,.1.<.K 2.K ,.K z j k K I q c m m m j c j m m m I P P y.p.y.y.y.d.h.b T X.vXvX",
"vXvX> 2 S I.{.&X{.}.7X,XN.x.x.z.z.3.3.3.3.z.5.7.K ,.1.<.,.2.,.,.K k j L I P q c m M m m x 8 c m m m b P q.y.q.q.w.q.n G X.@.vXvX",
"vXvX< < 1 2 Q I.E.{.7X,XS.x.x.z.z.6.3.3.3.3.6.7.,.K 1.1.,.,.l l K z j k I k 9 b M m b b t t c c m m v P q.q.I v t N _  .@.$.vXvX",
"vXvXvX< > 1 < 2 W T U.E.A.x.c.z.z.8.8.3.8.3.3.3.2.L w.2.,.,.l l L k j k I k 8 f m c b b j j c c c c w Y u t + - 2 D ] ..@.vXvXvX",
"vXvXvX1 > > 1 1 2 2 3 F S Z U q.4.1.6.3.3.5.5.5.<.k 4.q.,.,.l l K z g k m k 8 b m c c x c a x t 7 + + O # $ % % < D { X.O.vXvXvX",
"vXvXvXvXZ 1 < < 3 3 3 2 2 1 2 1 B C Z T n P I I I g 0.,.l ,.l K k L k g P m 6 x x p i e e = & & # # # @ # # % % , F X.=XvXvXvXvX",
"vXvXvXvXvXj.Z 2 2 3 3 3 1 < < > > > % - - : & - ; ; ; B B B B N = N = = = & $ # @ @           @ @ @ @ @ # # - ; F / R.vXvXvXvXvX",
"vXvXvXvXvXM.p.h.! 3 3 2 2 1 < > > - > - % - $ $ $ $ & $ $ # # @ O o @ @ @ @ o   o         @   @ @ @ @ # # : , ! U.p.L.vXvXvXvXvX",
"vXvXvXvXvXvXj.D.K.M.Y T B < < < > > > - * * $ $ * $ # % # # # @ @ @ @ @ @   @                 @ @ # # * p Y y.h.A.d.vXvXvXvXvXvX",
"vXvXvXvXvXvXU.N.J.F.D.B.w.n y y = * * > - - % * * % $ $ # % # # @ @   @           o @   @ o & = e r I I y.w.f.A.g.S.vXvXvXvXvXvX",
"vXvXvXvXvXvX~ f.J.F.D.D.F.S.g h a w w 8 y e + = = * * $ # $ # @ @ @ @ o O .   O + + r r t x c m k u I q.y.y.d.R.g.! vXvXvXvXvXvX",
"vXvXvXvXvXvXQ M N.H.G.B.D.G.K 6.2.l j h h h h h h 7 q q w u w w q q 9 q x x 7 c a c c c c c m m b v I y.y.g.h.g.i.T vXvXvXvXvXvX",
"vXvXvXvXvXvX/ J r.H.D.S.D.D.,.1.2.2.=.2.,.L z z g 6 w q q v w d d 9 7 9 d x 6 c c c c c c m c m u P q.w.y.g.h.q.Y vXvXvXvXvXvXvX",
"vXvXvXvXvXvXvXQ Z a.D.D.N.B.p.,.6.2.2.=.,.K 2.,.,.q g g d q w q d 6 X 8 d x 6 c c c c c m m m c q I q.y.f.u.q.p ^ vXvXvXvXvXvXvX",
"vXvXvXvXvXvXvXvXT Z j.B.N.B.B.L ,.,.2.=.l l K K K w g k g g d d q 6 X d d 9 t x c c c c c c c c v I i.q.q.I r } vXvXvXvXvXvXvXvX",
"vXvXvXvXvXvXvXvX> W T ~ a.N.B.,.,.,.,.K l l K L l w g g g v d h d w w g x t c c c c c x c c c x P P q.I t N { +.vXvXvXvXvXvXvXvX",
"vXvXvXvXvXvXvXvXvX> 1 W T Y I y.,.l K L z L k k k q q g g h q q q q q d x 8 n c b b x x x x c 8 P b r + B E ..vXvXvXvXvXvXvXvXvX",
"vXvXvXvXvXvXvXvXvXvX> 1 2 R W T p q z z k j k L j h q d q q P q d q d v d 6 c x x c x x x d t . + * = , A ' vXvXvXvXvXvXvXvXvXvX",
"vXvXvXvXvXvXvXvXvXvXvX> , 1 2 2 2 W W T p u u w q h w v q h w w 8 8 9 q x 7 x 8 8 6 + + . o # & # % - 1 F vXvXvXvXvXvXvXvXvXvXvX",
"vXvXvXvXvXvXvXvXvXvXvXvX> > 2 > > > $ > * , B W B = = N e y y y r e + + + + O O O O O # @ & # # * - , 1 vXvXvXvXvXvXvXvXvXvXvXvX",
"vXvXvXvXvXvXvXvXvXvXvXvXvXvX< > > < > > > * $ $ * O $ O O # # O @ O @ o @ o O @ @ @ # @ # # $ $ - > vXvXvXvXvXvXvXvXvXvXvXvXvXvX",
"vXvXvXvXvXvXvXvXvXvXvXvXvXvXvXvX< > > > % > % % $ $ # $ $ $ # @ @ $ @ O @ O O @ @ # @ # # # $ - vXvXvXvXvXvXvXvXvXvXvXvXvXvXvXvX",
"vXvXvXvXvXvXvXvXvXvXvXvXvXvXvXvXvXvXvX> % % % $ # # # O # O # # O # O $ @ O o @ # @ # $ # vXvXvXvXvXvXvXvXvXvXvXvXvXvXvXvXvXvXvX",
"vXvXvXvXvXvXvXvXvXvXvXvXvXvXvXvXvXvXvXvXvXvXvXvX% $ # % # # @ O # # @ $ @ @ @ # vXvXvXvXvXvXvXvXvXvXvXvXvXvXvXvXvXvXvXvXvXvXvXvX"
};
