/* XPM */
static char *result[] = {
/* columns rows colors chars-per-pixel */
"64 64 150 2 ",
"   c #E97336",
".  c #E97435",
"X  c #E97635",
"o  c #EB7E31",
"O  c #EA7A40",
"+  c #EA7D44",
"@  c #F4A81D",
"#  c #F4A81E",
"$  c #F4AA1F",
"%  c #EC812F",
"&  c #EC832E",
"*  c #EE8B2A",
"=  c #EE8D29",
"-  c #ED882C",
";  c #EF9128",
":  c #F09526",
">  c #F19B23",
",  c #F19D22",
"<  c #EC8030",
"1  c #F2A021",
"2  c #F4AB20",
"3  c #F4AB21",
"4  c #F4AF25",
"5  c #F4AE27",
"6  c #F4B029",
"7  c #F4B12A",
"8  c #F4B22C",
"9  c #F3B62C",
"0  c #F3B62D",
"q  c #F5AF3A",
"w  c #F4B530",
"e  c #F3BA31",
"r  c #F5B53E",
"t  c #F4BB3A",
"y  c #F4BC3B",
"u  c #F4BD3C",
"i  c #F4BD3D",
"p  c #F4BF3F",
"a  c #F3C33B",
"s  c #F3C43C",
"d  c #EB824C",
"f  c #EC8854",
"g  c #EC8855",
"h  c #F7BE55",
"j  c #F7BE56",
"k  c #F4B05C",
"l  c #EE9668",
"z  c #EF986B",
"x  c #EF996C",
"c  c #F1A163",
"v  c #F0A178",
"b  c #F0A27A",
"n  c #F5B877",
"m  c #F4C041",
"M  c #F4C243",
"N  c #F3C144",
"B  c #F4C144",
"V  c #F4C244",
"C  c #F5C244",
"Z  c #F5C344",
"A  c #F4C245",
"S  c #F4C345",
"D  c #F3CC44",
"F  c #F3C848",
"G  c #F3C949",
"H  c #F2CF48",
"J  c #F3CF48",
"K  c #F2CF49",
"L  c #F3CC4B",
"P  c #F3CD4C",
"I  c #F3CE4D",
"U  c #F2D14A",
"Y  c #F2D14B",
"T  c #F3D04F",
"R  c #F2D44E",
"E  c #F3CE53",
"W  c #F5C854",
"Q  c #F5CA5A",
"!  c #F5CC5F",
"~  c #F3D552",
"^  c #F2D653",
"/  c #F1D754",
"(  c #F2D754",
")  c #F1D854",
"_  c #F2D854",
"`  c #F2D954",
"'  c #F2D855",
"]  c #F2DF5A",
"[  c #F5CD61",
"{  c #F5D468",
"}  c #F5D46A",
"|  c #F4D869",
" . c #F3DC68",
".. c #F4DE6D",
"X. c #F4DE6E",
"o. c #F4DE6F",
"O. c #F6D372",
"+. c #F6D474",
"@. c #F6D576",
"#. c #F4DE71",
"$. c #F7D87E",
"%. c #F7D87F",
"&. c #F3B291",
"*. c #F4B99A",
"=. c #F9CF83",
"-. c #F6DE83",
";. c #F7DB85",
":. c #F9D188",
">. c #F9D38E",
",. c #F9D48E",
"<. c #F9D48F",
"1. c #F7DC89",
"2. c #F7C694",
"3. c #F7CA92",
"4. c #FAD699",
"5. c #F5E280",
"6. c #F6E384",
"7. c #F6E385",
"8. c #F6E387",
"9. c #F7E691",
"0. c #F8E399",
"q. c #F8E39B",
"w. c #F8E49C",
"e. c #F8E59F",
"r. c #F9E59F",
"t. c #F7E899",
"y. c #F7E89B",
"u. c #F8E898",
"i. c #F8E99E",
"p. c #F6C4AB",
"a. c #FADCA4",
"s. c #F8D3BF",
"d. c #F8E9A0",
"f. c #F8E9A1",
"g. c #F8EAA3",
"h. c #F8EAA4",
"j. c #FBE0B0",
"k. c #F9EDB1",
"l. c #FAEFBA",
"z. c #F9DAC9",
"x. c #F9DCCD",
"c. c #FCE9C6",
"v. c #FCE9C7",
"b. c #FBE3CC",
"n. c #FCEAC8",
"m. c #FCEAC9",
"M. c #FFFDF9",
"N. c #FEFCFA",
"B. c white",
"V. c None",
/* pixels */
"V.V.V.V.V.V.V.V.V.V.V.V.V.V.V.V.V.V.V.V.V.V.V.V.V.V.V.V.V.V.V.V.V.V.V.V.V.V.V.V.V.V.V.V.V.V.V.V.V.V.V.V.V.V.V.V.V.V.V.V.V.V.V.V.",
"V.V.V.V.V.V.V.V.V.V.V.V.V.V.V.V.V.V.V.V.V.V.V.V.V.V.V.V.V.V.V.V.V.V.V.V.V.V.V.V.V.V.V.V.V.V.V.V.V.V.V.V.V.V.V.V.V.V.V.V.V.V.V.V.",
"V.V.V.V.V.V.V.V.V.V.V.V.V.V.V.V.V.V.V.V.V.V.V.V.V.V.V.V.V.V.V.V.V.V.V.V.V.V.V.V.V.V.V.V.V.V.V.V.V.V.V.V.V.V.V.V.V.V.V.V.V.V.V.V.",
"V.V.V.V.V.V.V.V.V.V.V.V.V.V.V.V.V.V.V.V.V.V.V.V.V.V.V.V.V.V.V.V.V.V.V.V.V.V.V.V.V.V.V.V.V.V.V.V.V.V.V.V.V.V.V.V.V.V.V.V.V.V.V.V.",
"V.V.V.V.V.V.V.V.V.V.V.V.V.V.V.V.V.V.V.V.V.V.V.V./ / _ _ _ _ _ _ _ _ _ / V.V.V.V.V.V.V.V.V.V.V.V.V.V.V.V.V.V.V.V.V.V.V.V.V.V.V.V.",
"V.V.V.V.V.V.V.V.V.V.V.V.V.V.V.V.V.V.V.V.V./ _ _ _ _ _ _ _ _ _ _ _ _ _ _ _ _ _ / V.V.V.V.V.V.V.V.V.V.V.V.V.V.V.V.V.V.V.V.V.V.V.V.",
"V.V.V.V.V.V.V.V.V.V.V.V.V.V.V.V.V.V.V.) _ _ _ _ _ o.8.8.8.y.k.t.8.8.8.#._ _ _ _ _ _ V.V.V.V.V.V.V.V.V.V.V.V.V.V.V.V.V.V.V.V.V.V.",
"V.V.V.V.V.V.V.V.V.V.V.V.V.V.V.V.V./ _ _ _ _ 8.f.l.l.%.%.%.%.%.%.%.%.1.l.l.h.8. ._ _ _ _ V.V.V.V.V.V.V.V.V.V.V.V.V.V.V.V.V.V.V.V.",
"V.V.V.V.V.V.V.V.V.V.V.V.V.V.V.V._ _ _ ..d.l.%.O.V V V V V V V V V V V V V %.;.l.d.6._ _ _ / V.V.V.V.V.V.V.V.V.V.V.V.V.V.V.V.V.V.",
"V.V.V.V.V.V.V.V.V.V.V.V.V.V.V._ _ ..d.w.@.V V V V V V V V V V V V V V V V V V V $.w.l.7._ _ _ V.V.V.V.V.V.V.V.V.V.V.V.V.V.V.V.V.",
"V.V.V.V.V.V.V.V.V.V.V.V.V._ _ _ 9.e.[ V V V V V V V V V V V V V V V V V V V V V V V [ w.d..._ _ V.V.V.V.V.V.V.V.V.V.V.V.V.V.V.V.",
"V.V.V.V.V.V.V.V.V.V.V.V._ _ ..f.%.V V V V V V V V V V V y w w w i V V V V V V V V V V V [ l.i._ _ _ V.V.V.V.V.V.V.V.V.V.V.V.V.V.",
"V.V.V.V.V.V.V.V.V.V.V._ _ ..r.[ V V V V V V V V w 5 @ @ @ @ @ @ @ @ @ 8 w V V V V V V V V V q.g..._ _ V.V.V.V.V.V.V.V.V.V.V.V.V.",
"V.V.V.V.V.V.V.V.V.V.V._ ..w.V V V V V V V t 6 @ @ @ @ @ @ @ @ @ @ @ @ @ @ @ 6 t V V V V V V V [ l..._ V.V.V.V.V.V.V.V.V.V.V.V.V.",
"V.V.V.V.V.V.V.V.V.V._ ..w.V V V V V V V 6 @ @ @ @ @ @ @ @ @ @ @ @ @ @ @ @ @ @ @ 5 u V V V V V V ! w..._ V.V.V.V.V.V.V.V.V.V.V.V.",
"V.V.V.V.V.V.V.V.V.` ..w.V V V V V V t @ @ @ @ @ @ @ @ @ @ @ @ @ @ @ @ @ @ @ @ @ @ @ w V V V V V V V w.../ V.V.V.V.V.V.V.V.V.V.V.",
"V.V.V.V.V.V.V.V._ _ q.V V V V V V t @ @ @ @ @ @ @ @ @ @ @ @ @ @ @ @ @ @ @ @ @ @ @ @ @ 5 V V V V V V V g._ V.V.V.V.V.V.V.V.V.V.V.",
"V.V.V.V.V.V.V.V._ d.A V V V V V t @ @ @ @ @ @ @ @ @ @ @ @ @ @ B.v.@ @ @ @ @ @ @ @ @ @ @ @ t V V V V V [ 6./ V.V.V.V.V.V.V.V.V.V.",
"V.V.V.V.V.V.V.` ..[ V V V V V t @ @ @ @ @ @ @ @ @ @ @ @ @ @ @ B.B.@ @ @ @ @ @ @ @ @ @ @ @ @ V V V V V V w.( V.V.V.V.V.V.V.V.V.V.",
"V.V.V.V.V.V.V._ 0.V V V V V t @ @ @ @ @ @ @ @ @ @ @ @ @ r >.j.B.n.@ @ @ @ @ @ @ @ @ @ @ @ @ 5 V V V V V [ 5.V.V.V.V.V.V.V.V.V.V.",
"V.V.V.V.V.V./ 8.V V V V V V 5 @ @ @ @ @ @ @ @ @ @ @ >.B.B.B.B.B.B.B.c.h @ @ @ @ @ @ @ @ @ @ @ t V V V V V -./ V.V.V.V.V.V.V.V.V.",
"V.V.V.V.V.V._ %.V V V V V w @ @ @ @ @ @ @ @ @ @ # m.B.B.B.B.B.B.B.B.B.B.c.@ @ @ @ @ @ @ @ @ @ 5 V V V V V +...V.V.V.V.V.V.V.V.V.",
"V.V.V.V.V.V.X.V V V V V V @ @ @ @ @ @ @ @ @ @ @ c.B.B.B.B.x.x.B.B.B.B.B.B.a.@ @ @ @ @ @ @ @ @ @ m V V V V V 8.V.V.V.V.V.V.V.V.V.",
"V.V.V.V.V./ { V V V V V w @ @ @ @ @ @ @ @ @ @ h B.B.B.B.l   *.B.*.x B.B.B.B.h @ @ @ @ @ @ @ @ @ w V V V V V %./ V.V.V.V.V.V.V.V.",
"V.V.V.V.V./ [ V V V V V 3 @ @ @ @ @ @ @ @ @ @ >.B.B.B.*.< = b.B.n   s.B.B.B.>.@ @ @ @ @ @ @ @ @ @ V V V V V [ / V.V.V.V.V.V.V.V.",
"V.V.V.V.V.o.V V V V V p @ @ @ @ @ @ @ @ @ @ @ >.B.B.B.2.@ @ B.B.@ > v B.B.B.>.@ @ @ @ @ @ @ @ @ @ V V V V V V u.V.V.V.V.V.V.V.V.",
"V.V.V.V.V.P V V V V V w @ @ @ @ @ @ @ @ @ @ @ 3.B.B.B.<.@ @ B.B.@ @ & x.B.B.k @ @ @ @ @ @ @ @ @ @ w V V V V V | V.V.V.V.V.V.V.V.",
"V.V.V.V.V.E V V V V V w @ @ @ @ @ @ @ @ @ @ @ *.B.B.B.B.,.@ B.B.@ @ =   z O = @ @ @ @ @ @ @ @ @ @ w V V V V V } V.V.V.V.V.V.V.V.",
"V.V.V.V.V.Q V V V V V @ @ @ @ @ @ @ @ @ @ @ @ % B.B.B.B.B.B.B.B.@ @ @ <   < @ @ @ @ @ @ @ @ @ @ @ 7 V V V V V %.V.V.V.V.V.V.V.V.",
"V.V.V.V.V.V V V V V V @ @ @ @ @ @ @ @ @ @ @ @ = l B.B.B.B.B.B.B.c.=.@ @ @ @ @ @ @ @ @ @ @ @ @ @ @ @ V V V V V W V.V.V.V.V.V.V.V.",
"V.V.V.V.V.V V V V V V @ @ @ @ @ @ @ @ @ @ @ @ @ . l x.B.B.B.B.B.B.B.B.:.@ @ @ @ @ @ @ @ @ @ @ @ @ @ V V V V V V V.V.V.V.V.V.V.V.",
"V.V.V.V.V.V V V V V V @ @ @ @ @ @ @ @ @ @ @ @ @ >     l x.B.B.B.B.B.B.B.c.@ @ @ @ @ @ @ @ @ @ @ @ @ V V V V V V V.V.V.V.V.V.V.V.",
"V.V.V.V.V.V V V V V S @ @ @ @ @ @ @ @ @ @ @ @ @ @ @ *     *.B.B.B.B.B.B.B.>.@ @ @ @ @ @ @ @ @ @ @ @ V V V V V V V.V.V.V.V.V.V.V.",
"V.V.V.V.V.V V V V V T @ @ @ @ @ @ @ @ @ @ @ # >.>.@ @ @ = *.B.*.b B.B.B.B.B.@ @ @ @ @ @ @ @ @ @ @ 7 V V V V V V V.V.V.V.V.V.V.V.",
"V.V.V.V.V.V V V V V T e @ @ @ @ @ @ @ @ @ @ M.B.B.c.@ @ @ 4.B.*.  + B.B.B.B.>.@ @ @ @ @ @ @ @ @ @ w V V V V V V V.V.V.V.V.V.V.V.",
"V.V.V.V.V.V V V V V T a @ @ @ @ @ @ @ @ @ @ B.B.B.B.@ @ @ N.B.q > < *.B.B.B.>.@ @ @ @ @ @ @ @ @ @ w V V V V V V V.V.V.V.V.V.V.V.",
"V.V.V.V.V.V V V V V I J @ @ @ @ @ @ @ @ @ > B.B.B.B.j @ @ B.B.@ @ @ *.B.B.B.>.@ @ @ @ @ @ @ @ @ @ T V V V V V V V.V.V.V.V.V.V.V.",
"V.V.V.V.V.B V V V V V ] @ @ @ @ @ @ @ @ @ = x.B.B.B.c.@ @ B.B.@ @ @ c.B.B.B.k @ @ @ @ @ @ @ @ @ 9 T V V V V V N V.V.V.V.V.V.V.V.",
"V.V.V.V.V.N V V V V V ] 0 @ @ @ @ @ @ @ @ , l B.B.B.B.c.@ B.B.@ @ c.B.B.B.x.1 @ @ @ @ @ @ @ @ @ a V V V V V V N V.V.V.V.V.V.V.V.",
"V.V.V.V.V.N V V V V V ' Y @ @ @ @ @ @ @ @ @ o z.B.B.B.B.B.B.B.<.B.B.B.B.B.l @ @ @ @ @ @ @ @ @ @ ] V V V V V V V.V.V.V.V.V.V.V.V.",
"V.V.V.V.V.V.V V V V V T ] $ @ @ @ @ @ @ @ @ >   &.B.B.B.B.B.B.B.B.B.B.B.l = @ @ @ @ @ @ @ @ @ a ^ V V V V V N V.V.V.V.V.V.V.V.V.",
"V.V.V.V.V.V.Z V V V V F ] a @ @ @ @ @ @ @ @ @ >   d *.B.B.B.B.B.B.B.p.g < @ @ @ @ @ @ @ @ @ 9 ] I V V V V V N V.V.V.V.V.V.V.V.V.",
"V.V.V.V.V.V.N V V V V V _ ] 4 @ @ @ @ @ @ @ @ @ > X     *.B.x.*.f     < @ @ @ @ @ @ @ @ @ @ Y ] V V V V V V V.V.V.V.V.V.V.V.V.V.",
"V.V.V.V.V.V.V.V V V V V G ] Y @ @ @ @ @ @ @ @ @ @ @ ; - *.B.*.    * > @ @ @ @ @ @ @ @ @ @ Y ] T V V V V V V V.V.V.V.V.V.V.V.V.V.",
"V.V.V.V.V.V.V.V V V V V V _ ] Y @ @ @ @ @ @ @ @ @ @ @ @ >.B.>.@ @ @ @ @ @ @ @ @ @ @ @ @ D ] ] V V V V V V V.V.V.V.V.V.V.V.V.V.V.",
"V.V.V.V.V.V.V.V.V V V V V G ] ] Y @ @ @ @ @ @ @ @ @ @ @ c *.: @ @ @ @ @ @ @ @ @ @ @ @ H ] ] G V V V V V V V.V.V.V.V.V.V.V.V.V.V.",
"V.V.V.V.V.V.V.V.C V V V V V L ] ] ] 9 @ @ @ @ @ @ @ @ @ <   @ @ @ @ @ @ @ @ @ @ @ @ Y ] ] _ V V V V V V V.V.V.V.V.V.V.V.V.V.V.V.",
"V.V.V.V.V.V.V.V.V.V V V V V V _ ] ] ] Y 2 @ @ @ @ @ @ @ @ @ @ @ @ @ @ @ @ @ @ @ 9 ] ] ] _ V V V V V V V.V.V.V.V.V.V.V.V.V.V.V.V.",
"V.V.V.V.V.V.V.V.V.V V V V V V V _ ] ] ] ] s 4 @ @ @ @ @ @ @ @ @ @ @ @ @ @ @ 9 Y ] ] ] _ V V V V V V V V.V.V.V.V.V.V.V.V.V.V.V.V.",
"V.V.V.V.V.V.V.V.V.V.V V V V V V V _ ] ] ] ] ] Y a @ @ @ @ @ @ @ @ @ @ 2 a R ] ] ] ] _ V V V V V V V V.V.V.V.V.V.V.V.V.V.V.V.V.V.",
"V.V.V.V.V.V.V.V.V.V.V.V V V V V V V G ] ] ] ] ] ] ] ] K a a a a a U ] ] ] ] ] ] ] T V V V V V V V V.V.V.V.V.V.V.V.V.V.V.V.V.V.V.",
"V.V.V.V.V.V.V.V.V.V.V.V.V V V V V V V S _ ] ] ] ] ] ] ] ] ] ] ] ] ] ] ] ] ] ] _ G V V V V V V M V.V.V.V.V.V.V.V.V.V.V.V.V.V.V.V.",
"V.V.V.V.V.V.V.V.V.V.V.V.V.V V V V V V V V G ^ ] ] ] ] ] ] ] ] ] ] ] ] ] ] _ G V V V V V V V V V.V.V.V.V.V.V.V.V.V.V.V.V.V.V.V.V.",
"V.V.V.V.V.V.V.V.V.V.V.V.V.V.V.V V V V V V V V V T T ] ] ] ] ] ] ] ] ~ T V V V V V V V V V V V.V.V.V.V.V.V.V.V.V.V.V.V.V.V.V.V.V.",
"V.V.V.V.V.V.V.V.V.V.V.V.V.V.V.V.C V V V V V V V V V V V V V V V V V V V V V V V V V V V V.V.V.V.V.V.V.V.V.V.V.V.V.V.V.V.V.V.V.V.",
"V.V.V.V.V.V.V.V.V.V.V.V.V.V.V.V.V.V.V V V V V V V V V V V V V V V V V V V V V V V V N V.V.V.V.V.V.V.V.V.V.V.V.V.V.V.V.V.V.V.V.V.",
"V.V.V.V.V.V.V.V.V.V.V.V.V.V.V.V.V.V.V.V.N V V V V V V V V V V V V V V V V V V V N V.V.V.V.V.V.V.V.V.V.V.V.V.V.V.V.V.V.V.V.V.V.V.",
"V.V.V.V.V.V.V.V.V.V.V.V.V.V.V.V.V.V.V.V.V.V.V.N M V V V V V V V V V V V V N V.V.V.V.V.V.V.V.V.V.V.V.V.V.V.V.V.V.V.V.V.V.V.V.V.V.",
"V.V.V.V.V.V.V.V.V.V.V.V.V.V.V.V.V.V.V.V.V.V.V.V.V.V.V.N N N N N N N V.V.V.V.V.V.V.V.V.V.V.V.V.V.V.V.V.V.V.V.V.V.V.V.V.V.V.V.V.V.",
"V.V.V.V.V.V.V.V.V.V.V.V.V.V.V.V.V.V.V.V.V.V.V.V.V.V.V.V.V.V.V.V.V.V.V.V.V.V.V.V.V.V.V.V.V.V.V.V.V.V.V.V.V.V.V.V.V.V.V.V.V.V.V.V.",
"V.V.V.V.V.V.V.V.V.V.V.V.V.V.V.V.V.V.V.V.V.V.V.V.V.V.V.V.V.V.V.V.V.V.V.V.V.V.V.V.V.V.V.V.V.V.V.V.V.V.V.V.V.V.V.V.V.V.V.V.V.V.V.V.",
"V.V.V.V.V.V.V.V.V.V.V.V.V.V.V.V.V.V.V.V.V.V.V.V.V.V.V.V.V.V.V.V.V.V.V.V.V.V.V.V.V.V.V.V.V.V.V.V.V.V.V.V.V.V.V.V.V.V.V.V.V.V.V.V.",
"V.V.V.V.V.V.V.V.V.V.V.V.V.V.V.V.V.V.V.V.V.V.V.V.V.V.V.V.V.V.V.V.V.V.V.V.V.V.V.V.V.V.V.V.V.V.V.V.V.V.V.V.V.V.V.V.V.V.V.V.V.V.V.V.",
"V.V.V.V.V.V.V.V.V.V.V.V.V.V.V.V.V.V.V.V.V.V.V.V.V.V.V.V.V.V.V.V.V.V.V.V.V.V.V.V.V.V.V.V.V.V.V.V.V.V.V.V.V.V.V.V.V.V.V.V.V.V.V.V."
};
