/* XPM */
static char *result[] = {
/* columns rows colors chars-per-pixel */
"64 64 213 2 ",
"   c #901115",
".  c #921115",
"X  c #961116",
"o  c #971116",
"O  c #961117",
"+  c #971217",
"@  c #9D1118",
"#  c #9D1218",
"$  c #9D1318",
"%  c #AA141A",
"&  c #AD141A",
"*  c #B2151B",
"=  c #B6151B",
"-  c #B7151B",
";  c #B4161B",
":  c #B6161B",
">  c #B6151C",
",  c #B9151B",
"<  c #BA151D",
"1  c #B9161C",
"2  c #BF151D",
"3  c #BC171C",
"4  c #C2151D",
"5  c #C3151D",
"6  c #C1161D",
"7  c #C3161D",
"8  c #C2171D",
"9  c #C3171D",
"0  c #C4171D",
"q  c #C7171E",
"w  c #CC181F",
"e  c #CD181F",
"r  c #D0181F",
"t  c #D01920",
"y  c #D11920",
"u  c #D21820",
"i  c #D21920",
"p  c #D51920",
"a  c #D81921",
"s  c #D91921",
"d  c #D91A21",
"f  c #DA1A21",
"g  c #DB1A21",
"h  c #D81A22",
"j  c #D81B22",
"k  c #DC1A21",
"l  c #DD1A21",
"z  c #DE1A21",
"x  c #DE1A22",
"c  c #DF1A22",
"v  c #DF1C23",
"b  c #DB1E25",
"n  c #E01A22",
"m  c #E11A22",
"M  c #E21A22",
"N  c #E21B22",
"B  c #E31B22",
"V  c #E41B22",
"C  c #E51B23",
"Z  c #E71A22",
"A  c #E61B23",
"S  c #E71B23",
"D  c #E51C24",
"F  c #E81B23",
"G  c #E91B23",
"H  c #EA1B23",
"J  c #EB1B23",
"K  c #E91C23",
"L  c #EA1C23",
"P  c #EB1C23",
"I  c #EA1C24",
"U  c #EC1C24",
"Y  c #ED1C24",
"T  c #ED1D25",
"R  c #ED1E26",
"E  c #E72028",
"W  c #E2252C",
"Q  c #E0272E",
"!  c #ED2028",
"~  c #ED2129",
"^  c #ED222A",
"/  c #ED232B",
"(  c #ED242B",
")  c #EE252C",
"_  c #EE262D",
"`  c #EE262E",
"'  c #EE272E",
"]  c #ED282F",
"[  c #E22E34",
"{  c #E22F36",
"}  c #E62E34",
"|  c #EE2931",
" . c #EE2B32",
".. c #EE2C34",
"X. c #EE2E36",
"o. c #EE2F36",
"O. c #E7343B",
"+. c #E83138",
"@. c #E93138",
"#. c #EB3239",
"$. c #EE3038",
"%. c #EF333A",
"&. c #E8343B",
"*. c #EF353D",
"=. c #EF383F",
"-. c #E73C42",
";. c #EF3A41",
":. c #EF3D44",
">. c #EF3E45",
",. c #E9484E",
"<. c #F04047",
"1. c #F0464C",
"2. c #F0464D",
"3. c #F0484F",
"4. c #EF4B52",
"5. c #F14C52",
"6. c #F14E54",
"7. c #EF5258",
"8. c #EC565C",
"9. c #F1545A",
"0. c #F1555B",
"q. c #F1575D",
"w. c #EA5F64",
"e. c #F25E63",
"r. c #F25F65",
"t. c #EC666B",
"y. c #EC676B",
"u. c #EF676D",
"i. c #EF686D",
"p. c #F26167",
"a. c #F3656B",
"s. c #F36C71",
"d. c #F36D73",
"f. c #F47176",
"g. c #F47277",
"h. c #F47579",
"j. c #F4777C",
"k. c #083F88",
"l. c #0A4089",
"z. c #0C428A",
"x. c #3B67A1",
"c. c #436DA4",
"v. c #4A73A8",
"b. c #567CAE",
"n. c #F47B80",
"m. c #F47C80",
"M. c #F57D81",
"N. c #F57E83",
"B. c #6285B3",
"V. c #6789B6",
"C. c #6B8CB8",
"Z. c #6E8EB9",
"A. c #7795BD",
"S. c #F5858A",
"D. c #F5878B",
"F. c #F68A8E",
"G. c #F68C90",
"H. c #F68D91",
"J. c #F68E92",
"K. c #F69296",
"L. c #F79B9E",
"P. c #F8A3A6",
"I. c #F8A4A7",
"U. c #F8A4A8",
"Y. c #F8ACAF",
"T. c #F9B7BA",
"R. c #F9B8BA",
"E. c #FABBBE",
"W. c #F9BCBF",
"Q. c #FABDBF",
"!. c #839FC3",
"~. c #85A0C4",
"^. c #9FB5D1",
"/. c #A2B7D2",
"(. c #B2C3DA",
"). c #B5C5DB",
"_. c #B9C9DD",
"`. c #FAC5C7",
"'. c #FAC6C8",
"]. c #FAC7C9",
"[. c #FBC8CA",
"{. c #FBC9CB",
"}. c #FBD2D3",
"|. c #FBD3D5",
" X c #FBD4D6",
".X c #FCDDDE",
"XX c #C1CFE1",
"oX c #C3D0E2",
"OX c #C8D4E4",
"+X c #D3DDEA",
"@X c #FCDFE0",
"#X c #DDE5EF",
"$X c #FDE7E8",
"%X c #FDEBEC",
"&X c #E0E7F0",
"*X c #EAEEF5",
"=X c #EDF1F6",
"-X c #FEF0F0",
";X c #FEF2F3",
":X c #FEF3F4",
">X c #FEF7F7",
",X c #F1F4F8",
"<X c #FEF8F8",
"1X c #FEF9F9",
"2X c #FEFAFA",
"3X c #FFFBFB",
"4X c #F9FAFC",
"5X c #FBFCFD",
"6X c #FFFDFD",
"7X c #FEFEFE",
"8X c #FFFEFE",
"9X c white",
"0X c None",
/* pixels */
"0X0X0X0X0X0X0X0X0X0X0X0X0X0X0X0X0X0X0X0X0X0X0X0X0X0X0X0X0X0X0X0X0X0X0X0X0X0X0X0X0X0X0X0X0X0X0X0X0X0X0X0X0X0X0X0X0X0X0X0X0X0X0X0X",
"0X0X0X0X0X0X0X0X0X0X0X0X0X0X0X0X0X0X0X0X0X0X0X0X0X0X0X0X0X0X0X0X0X0X0X0X0X0X0X0X0X0X0X0X0X0X0X0X0X0X0X0X0X0X0X0X0X0X0X0X0X0X0X0X",
"0X0X0X0X0X0X0X0X0X0X0X0X0X0X0X0X0X0X0X0X0X0X0X0X0X0X0X0X0X0X0XZ Z 0X0X0X0X0X0X0X0X0X0X0X0X0X0X0X0X0X0X0X0X0X0X0X0X0X0X0X0X0X0X0X",
"0X0X0X0X0X0X0X0X0X0X0X0X0X0X0X0X0X0X0X0X0X0X0X0X0Xt.u.1.p.s.r.q.q.r.s.p.1.i.y.0X0X0X0X0X0X0X0X0X0X0X0X0X0X0X0X0X0X0X0X0X0X0X0X0X",
"0X0X0X0X0X0X0X0X0X0X0X0X0X0X0X0X0X0X0X0X0X0Xw.4.e.` Y Y Y Y Y Y Y Y Y Y Y Y ` e.4.w.0X0X0X0X0X0X0X0X0X0X0X0X0X0X0X0X0X0X0X0X0X0X",
"0X0X0X0X0X0X0X0X0X0X0X0X0X0X0X0X0X0X0X0X8.0.' Y Y Y Y Y Y Y Y Y Y Y Y Y Y Y Y Y Y ' 0.8.0X0X0X0X0X0X0X0X0X0X0X0X0X0X0X0X0X0X0X0X",
"0X0X0X0X0X0X0X0X0X0X0X0X0X0X0X0X0X0X,.6.! Y Y Y Y Y Y Y Y Y Y Y Y Y Y Y Y Y Y Y Y Y Y ! 6.,.0X0X0X0X0X0X0X0X0X0X0X0X0X0X0X0X0X0X",
"0X0X0X0X0X0X0X0X0X0X0X0X0X0X0X0X0X7.| Y Y Y Y Y Y Y Y Y Y Y Y Y Y Y Y Y Y Y Y Y Y Y Y Y Y | 7.0X0X0X0X0X0X0X0X0X0X0X0X0X0X0X0X0X",
"0X0X0X0X0X0X0X0X0X0X0X0X0X0X0X-.<.Y Y Y Y Y Y Y Y Y Y Y Y Y Y Y Y Y Y Y Y Y Y Y Y Y Y Y Y Y Y <.-.0X0X0X0X0X0X0X0X0X0X0X0X0X0X0X",
"0X0X0X0X0X0X0X0X0X0X0X0X0X0XO.*.Y Y Y Y Y Y Y Y Y Y Y Y Y Y Y Y Y Y Y Y Y Y Y Y Y Y Y Y Y Y Y Y *.&.0X0X0X0X0X0X0X0X0X0X0X0X0X0X",
"0X0X0X0X0X0X0X0X0X0X0X0X0X@...Y Y Y Y Y Y Y Y Y Y Y Y Y Y Y Y Y Y Y Y Y Y Y Y Y Y Y Y Y Y Y Y Y Y ..+.0X0X0X0X0X0X0X0X0X0X0X0X0X",
"0X0X0X0X0X0X0X0X0X0X0X0X}  .Y Y Y Y Y Y Y Y Y Y Y Y Y Y Y Y Y Y Y Y Y Y Y Y Y Y Y Y Y Y Y Y Y Y Y Y  .} 0X0X0X0X0X0X0X0X0X0X0X0X",
"0X0X0X0X0X0X0X0X0X0X0X[ X.Y Y Y Y Y Y Y Y Y Y Y Y Y Y Y Y Y Y Y Y Y Y Y Y Y Y Y Y Y Y Y Y Y Y Y Y Y Y X.{ 0X0X0X0X0X0X0X0X0X0X0X",
"0X0X0X0X0X0X0X0X0X0Xh o.Y Y Y Y Y Y Y Y Y Y Y Y Y Y Y Y Y Y Y Y Y Y Y Y Y Y Y Y Y Y Y Y Y Y Y Y Y Y Y Y o.j 0X0X0X0X0X0X0X0X0X0X",
"0X0X0X0X0X0X0X0X0X0X#.Y Y Y Y Y Y Y Y Y Y Y Y Y Y Y Y Y Y Y Y Y Y Y Y Y Y Y Y Y Y Y Y Y Y Y Y Y Y Y Y Y Y #.0X0X0X0X0X0X0X0X0X0X",
"0X0X0X0X0X0X0X0X0XQ ~ Y Y Y Y Y Y Y Y Y Y Y Y Y Y Y Y Y Y Y Y Y Y Y Y Y Y Y Y Y Y Y Y Y Y Y Y Y Y Y Y Y Y ~ Q 0X0X0X0X0X0X0X0X0X",
"0X0X0X0X0X0X0X0X0X] Y Y Y Y Y Y Y Y Y Y Y Y Y Y Y Y Y Y Y Y Y Y Y Y Y Y Y Y Y Y Y Y Y Y Y Y Y Y Y Y Y Y Y Y ] 0X0X0X0X0X0X0X0X0X",
"0X0X0X0X0X0X0X0XW T Y Y Y Y Y Y Y Y Y Y Y Y Y Y Y Y Y Y Y Y Y Y Y Y Y Y Y Y Y Y Y Y Y Y Y Y Y Y Y Y Y Y Y Y T W 0X0X0X0X0X0X0X0X",
"0X0X0X0X0X0X0X0X( Y Y Y Y Y Y Y Y Y Y Y Y Y Y Y Y Y Y Y Y Y Y Y Y Y Y Y Y Y Y Y Y Y Y Y Y Y Y Y Y Y Y Y Y Y Y ( 0X0X0X0X0X0X0X0X",
"0X0X0X0X0X0X0Xb R Y Y Y Y Y Y Y Y Y Y Y Y Y Y T h.H.H.G.=.Y Y Y Y Y Y Y Y Y Y Y Y Y Y Y Y ^ M.H.H.D.$.Y Y Y Y R b 0X0X0X0X0X0X0X",
"0X0X0X0X0X0X0XE Y Y Y Y Y Y Y Y Y Y Y Y Y Y J.8X9X9X9X9X9X'.2.Y Y Y Y Y Y Y Y Y Y Y Y R P.9X9X9X9X9X9XR.%.Y Y Y E 0X0X0X0X0X0X0X",
"0X0X0X0X0X0Xw ~ Y Y Y Y Y Y Y Y Y Y Y Y T ].9X9X9X9X9X9X9X9X8X0.Y Y Y Y Y Y Y Y Y Y | |.9X9X9X9X9X9X9X9X:X5.Y Y ~ w 0X0X0X0X0X0X",
"0X0X0X0X0X0Xu T Y Y Y Y Y Y Y Y Y Y Y Y E.9X9X9X9X9X9X9X9X9X9X6X:.Y Y Y Y Y Y Y Y Y {.9X9X9X9X9X9X9X9X9X9X%X/ Y T u 0X0X0X0X0X0X",
"0X0X0X0X0X0Xv Y Y Y Y Y Y Y Y Y Y Y Y 0.9X9X9X9X9X9X9XXX!.!._.9XT.Y Y Y Y Y Y Y Y f.9X9X9X9X9X9X9X(.!.!.OX9XL.Y Y v 0X0X0X0X0X0X",
"0X0X0X0X0X0XD Y Y Y Y Y Y Y Y Y Y Y Y U.9X9X9X9X9X9X^.k.k.k.k.~.9X) Y Y Y Y Y Y Y }.9X9X9X9X9X9XC.k.k.k.k.(.6XY Y D 0X0X0X0X0X0X",
"0X0X0X0X0X0XG Y Y Y Y Y Y Y Y Y Y Y Y 1X9X9X9X9X9X5Xk.k.k.k.k.k.=Xj.Y Y Y Y Y Y Y 9X9X9X9X9X9X#Xk.k.k.k.k.l.9X>.Y G 0X0X0X0X0X0X",
"0X0X0X0X0X0XJ Y Y Y Y Y Y Y Y Y Y Y Y 9X9X9X9X9X9XoXk.k.k.k.k.k./.H.Y Y Y Y Y Y Y 9X9X9X9X9X9X~.k.k.k.k.k.k.&Xa.Y J 0X0X0X0X0X0X",
"0X0X0X0X0X5 U Y Y Y Y Y Y Y Y Y Y Y Y 9X9X9X9X9X9X*Xk.k.k.k.k.k.+XS.Y Y Y Y Y Y Y 9X9X9X9X9X9X).k.k.k.k.k.k.4X9.Y U 9 0X0X0X0X0X",
"0X0X0X0X0X5 U Y Y Y Y Y Y Y Y Y Y Y Y `.9X9X9X9X9X9Xv.k.k.k.k.c.9X;.Y Y Y Y Y Y Y -X9X9X9X9X9X9Xx.k.k.k.k.b.9XR Y U 0 0X0X0X0X0X",
"0X0X0X0X0X5 U Y Y Y Y Y Y Y Y Y Y Y Y m.9X9X9X9X9X9X7XZ.l.k.V.4X@XY Y Y Y Y Y Y Y K.9X9X9X9X9X9X,XB.k.z.A.9XW.Y Y U 8 0X0X0X0X0X",
"0X0X0X0X0X5 U Y Y Y Y Y Y Y Y Y Y Y Y Y .X9X9X9X9X9X9X9X9X9X9X9Xr.Y Y Y Y Y Y Y Y _ >X9X9X9X9X9X9X9X9X9X9X9X6.Y Y U 8 0X0X0X0X0X",
"0X0X0X0X0X5 U Y Y Y Y Y Y Y Y Y Y Y Y Y 5.2X9X9X9X9X9X9X9X9X9XU.Y Y Y Y Y Y Y Y Y Y 0.9X9X9X9X9X9X9X9X9X9Xg.Y Y Y U 8 0X0X0X0X0X",
"0X0X0X0X0X5 U Y Y Y Y Y Y Y Y Y Y Y Y Y Y 3. X9X9X9X9X9X9X9XN.Y Y Y Y Y Y Y Y Y Y Y Y 9.$X9X9X9X9X9X9X3Xp.Y Y Y Y U 8 0X0X0X0X0X",
"0X0X0X0X0X5 U Y Y Y Y Y Y Y Y Y Y Y Y Y Y Y Y d.I.%X1X[.H.X.Y Y Y Y Y Y Y Y Y Y Y Y Y Y Y n.Y.;X<XQ.F./ Y Y Y Y Y U 8 0X0X0X0X0X",
"0X0X0X0X0X5 U Y Y Y Y Y Y Y Y Y Y Y Y Y Y Y Y Y Y Y Y Y Y Y Y Y Y Y Y Y Y Y Y Y Y Y Y Y Y Y Y Y Y Y Y Y Y Y Y Y Y U 8 0X0X0X0X0X",
"0X0X0X0X0X5 U Y Y Y Y Y Y Y Y Y Y Y Y Y Y Y Y Y Y Y Y Y Y Y Y Y Y Y Y Y Y Y Y Y Y Y Y Y Y Y Y Y Y Y Y Y Y Y Y Y Y U 8 0X0X0X0X0X",
"0X0X0X0X0X5 U Y Y Y Y Y Y Y Y Y Y Y Y Y Y Y Y Y Y Y Y Y Y Y Y Y Y Y Y Y Y Y Y Y Y Y Y Y Y Y Y Y Y Y Y Y Y Y Y Y Y U 8 0X0X0X0X0X",
"0X0X0X0X0X5 U Y Y Y Y Y Y Y Y Y Y Y Y Y Y Y Y Y Y Y Y Y Y Y Y Y Y Y Y Y Y Y Y Y Y Y Y Y Y Y Y Y Y Y Y Y Y Y Y Y Y U 8 0X0X0X0X0X",
"0X0X0X0X0X5 U Y Y Y Y Y Y Y Y Y Y Y Y Y Y Y Y Y Y Y Y Y Y Y Y Y Y Y Y Y Y Y Y Y Y Y Y Y Y Y Y Y Y Y Y Y Y Y Y Y Y U 8 0X0X0X0X0X",
"0X0X0X0X0X5 U Y Y Y Y Y Y Y Y Y Y Y Y Y Y Y Y Y Y Y Y Y Y Y Y Y Y Y Y Y Y Y Y Y Y Y Y Y Y Y Y Y Y Y Y Y Y Y Y Y Y U 8 0X0X0X0X0X",
"0X0X0X0X0X5 U Y Y Y Y Y Y Y Y Y Y Y Y Y Y Y Y Y Y Y Y Y Y Y Y Y Y Y Y Y Y Y Y Y Y Y Y Y Y Y Y Y Y Y Y Y Y Y Y Y Y U 8 0X0X0X0X0X",
"0X0X0X0X0X5 U Y Y Y Y Y Y Y Y Y Y Y Y Y Y Y Y Y Y Y Y Y Y Y Y Y Y Y Y Y Y Y Y Y Y Y Y Y Y Y Y Y Y Y Y Y Y Y Y Y Y U 8 0X0X0X0X0X",
"0X0X0X0X0X5 U Y Y Y Y Y Y Y Y Y Y Y Y Y Y Y Y Y Y Y Y Y Y Y Y Y Y Y Y Y Y Y Y Y Y Y Y Y Y Y Y Y Y Y Y Y Y Y Y Y Y U 8 0X0X0X0X0X",
"0X0X0X0X0X5 U Y Y Y Y Y Y Y Y Y Y Y Y Y Y Y Y Y Y Y Y Y Y Y Y Y Y Y Y Y Y Y Y Y Y Y Y Y Y Y Y Y Y Y Y Y Y Y Y Y Y U 8 0X0X0X0X0X",
"0X0X0X0X0X5 U Y Y Y Y Y Y Y Y Y Y Y Y Y Y Y Y Y Y Y Y Y Y Y Y Y Y Y Y Y Y Y Y Y Y Y Y Y Y Y Y Y Y Y Y Y Y Y Y Y Y U 8 0X0X0X0X0X",
"0X0X0X0X0X5 U Y Y Y Y Y Y Y Y Y Y Y Y Y Y Y Y Y Y Y Y Y Y Y Y Y Y Y Y Y Y Y Y Y Y Y Y Y Y Y Y Y Y Y Y Y Y Y Y Y Y U 8 0X0X0X0X0X",
"0X0X0X0X0X5 U Y Y Y Y Y Y Y Y Y Y Y Y Y Y Y Y Y Y Y Y Y Y Y Y Y Y Y Y Y Y Y Y Y Y Y Y Y Y Y Y Y Y Y Y Y Y Y Y Y Y U 8 0X0X0X0X0X",
"0X0X0X0X0X5 U Y Y Y Y Y Y Y Y Y Y Y Y Y Y Y Y Y Y Y Y Y Y Y Y Y Y Y Y Y Y Y Y Y Y Y Y Y Y Y Y Y Y Y Y Y Y Y Y Y Y U 8 0X0X0X0X0X",
"0X0X0X0X0X5 U Y Y Y Y Y Y Y Y Y Y Y Y Y Y Y Y Y Y Y Y Y Y Y Y Y Y Y Y Y Y Y Y Y Y Y Y Y Y Y Y Y Y Y Y Y Y Y Y Y Y U 8 0X0X0X0X0X",
"0X0X0X0X0X9 U Y Y Y Y Y Y Y Y Y Y Y Y Y Y Y Y Y Y Y Y Y Y Y Y Y Y Y Y Y Y Y Y Y Y Y Y Y Y Y Y Y Y Y Y Y Y Y Y Y Y U 8 0X0X0X0X0X",
"0X0X0X0X0X0 U Y Y Y Y Y Y Y Y Y Y Y Y Y Y Y Y Y Y Y Y Y Y Y Y Y Y Y Y Y Y Y Y Y Y Y Y Y Y Y Y Y Y Y Y Y Y Y Y Y Y U 8 0X0X0X0X0X",
"0X0X0X0X0X8 U Y Y Y Y Y Y Y Y Y Y Y Y Y Y Y Y Y Y Y Y Y Y Y Y Y Y Y Y Y Y Y Y Y Y Y Y Y Y Y Y Y Y Y Y Y Y Y Y Y Y U 8 0X0X0X0X0X",
"0X0X0X0X0X8 U Y Y Y Y Y Y Y Y Y Y Y Y Y Y Y Y Y Y Y Y Y Y Y Y Y Y Y Y Y Y Y Y Y Y Y Y Y Y Y Y Y Y Y Y Y Y Y Y Y Y U 8 0X0X0X0X0X",
"0X0X0X0X0X4 U Y Y Y Y Y Y Y Y Y Y Y Y Y Y Y Y Y Y Y Y Y Y Y Y Y Y Y Y Y Y Y Y Y Y Y Y Y Y Y Y Y Y Y Y Y Y Y Y Y Y U 8 0X0X0X0X0X",
"0X0X0X0X0X5 U Y Y Y Y Y Y Y Y A x G Y Y Y Y Y Y Y Y Y Y Y Y L c n L Y Y Y Y Y Y Y Y Y Y Y Y Y F c F Y Y Y Y Y Y Y U 4 0X0X0X0X0X",
"0X0X0X0X0X2 P Y Y Y Y Y Y L 7 0X0XO s Y Y Y Y Y Y Y Y Y Y f $ 0X0X@ s Y Y Y Y Y Y Y Y Y Y Y a + 0X  t U Y Y Y Y Y U 5 0X0X0X0X0X",
"0X0X0X0X0X0XJ Y Y Y Y Y S ; 0X0X0X0X0Xg Y Y Y Y Y Y Y Y g 0X0X0X0X0X0Xp Y Y Y Y Y Y Y Y Y d 0X0X0X0X0Xq U Y Y Y Y J 2 0X0X0X0X0X",
"0X0X0X0X0X0XF Y Y Y Y S * 0X0X0X0X0X0X0XV Y Y Y Y Y Y A 0X0X0X0X0X0X0X0Xl Y Y Y Y Y Y Y m 0X0X0X0X0X0X0Xr Y Y Y Y H 0X0X0X0X0X0X",
"0X0X0X0X0X0XN Y Y Y G : 0X0X0X0X0X0X0X0X- I Y Y Y Y U 3 0X0X0X0X0X0X0X0X# A Y Y Y Y Y S % 0X0X0X0X0X0X0X0Xf Y Y Y S 0X0X0X0X0X0X",
"0X0X0X0X0X0Xi Y Y K , 0X0X0X0X0X0X0X0X0X0X6 U Y Y Y y 0X0X0X0X0X0X0X0X0X0X- G Y Y Y F > 0X0X0X0X0X0X0X0X0X0Xn Y Y x 0X0X0X0X0X0X",
"0X0X0X0X0X0X# x B = 0X0X0X0X0X0X0X0X0X0X0X0X< M A e 0X0X0X0X0X0X0X0X0X0X0X0X* z F g & 0X0X0X0X0X0X0X0X0X0X0Xo k C 1 0X0X0X0X0X0X",
"0X0X0X0X0X0X0X0X0X0X0X0X0X0X0X0X0X0X0X0X0X0X0X0XX 0X0X0X0X0X0X0X0X0X0X0X0X0X0X0X+ 0X0X0X0X0X0X0X0X0X0X0X0X0X0X0X. 0X0X0X0X0X0X0X",
"0X0X0X0X0X0X0X0X0X0X0X0X0X0X0X0X0X0X0X0X0X0X0X0X0X0X0X0X0X0X0X0X0X0X0X0X0X0X0X0X0X0X0X0X0X0X0X0X0X0X0X0X0X0X0X0X0X0X0X0X0X0X0X0X",
"0X0X0X0X0X0X0X0X0X0X0X0X0X0X0X0X0X0X0X0X0X0X0X0X0X0X0X0X0X0X0X0X0X0X0X0X0X0X0X0X0X0X0X0X0X0X0X0X0X0X0X0X0X0X0X0X0X0X0X0X0X0X0X0X"
};
