/* XPM */
static char *result[] = {
/* columns rows colors chars-per-pixel */
"64 64 92 1 ",
"  c black",
". c #010100",
"X c #030300",
"o c #060600",
"O c #080800",
"+ c #0C0C00",
"@ c #0D0D00",
"# c #151500",
"$ c #181800",
"% c #1E1D00",
"& c #201F00",
"* c #202000",
"= c #212000",
"- c #252500",
"; c #2F2F00",
": c #323200",
"> c #363600",
", c #373600",
"< c #373700",
"1 c #383700",
"2 c #3A3900",
"3 c #3B3B00",
"4 c #3C3B00",
"5 c #3C3C00",
"6 c #3D3C00",
"7 c #3D3D00",
"8 c #3E3E00",
"9 c #3F3E00",
"0 c #3F3F00",
"q c #4B4A00",
"w c #505000",
"e c #525100",
"r c #525200",
"t c #535200",
"y c #565500",
"u c #5E5D00",
"i c #5E5E00",
"p c #605F00",
"a c #616100",
"s c #636200",
"d c #6F6E00",
"f c #717000",
"g c #737200",
"h c #757400",
"j c #767500",
"k c #777600",
"l c #797800",
"z c #7A7900",
"x c #7E7D00",
"c c #818000",
"v c #828100",
"b c #838200",
"n c #858400",
"m c #868500",
"M c #8B8A00",
"N c #8C8B00",
"B c #8D8C00",
"V c #908F00",
"C c #979600",
"Z c #9E9C00",
"A c #A5A300",
"S c #A9A800",
"D c #ABA900",
"F c #ABAA00",
"G c #AEAD00",
"H c #B2B000",
"J c #B4B200",
"K c #B5B400",
"L c #B6B500",
"P c #B9B800",
"I c #BAB800",
"U c #BAB900",
"Y c #BCBA00",
"T c #BCBB00",
"R c #BDBB00",
"E c #BDBC00",
"W c #C0BF00",
"Q c #C2C000",
"! c #C2C100",
"~ c #C7C500",
"^ c #CDCB00",
"/ c #D4D200",
"( c #E1E000",
") c #E6E400",
"_ c #E8E600",
"` c #E9E700",
"' c #ECEA00",
"] c #EEEC00",
"[ c #F0EE00",
"{ c #F1EF00",
"} c #F2F000",
"| c None",
/* pixels */
"|||||||||||||||||||||||||||||||            |||||||||||||||||||||",
"||||||||||||||||||||||||||      dlllllllgX     |||||||||||||||||",
"|||||||||||||||||||||||   ,lM}}}}}}}}}}}}}}}Al5    |||||||||||||",
"||||||||||||||||||||   tN}}}}}}}}}}}}}}}}}}}}}}}Df   |||||||||||",
"||||||||||||||||||  =l}}}}}}}}}}}}}}}}}}}}}}}}}}}}}n4  |||||||||",
"||||||||||||||||  4H}}}}}}}}}}}}}}}}}}}}}}}}}}}}}}}}}K5  |||||||",
"||||||||||||||| oS}}}}}}}}}}}}}}}}}}}}}}}}}}}}}}}}}}}}}K1 ||||||",
"|||||||||||||  s}}}}}}}}}}}}}}}}}}}}}}}}}}}}}}}}}}}}}}}}}l  ||||",
"|||||||||||| OK}}}}}}}}}}}}}}}}}}}}}}}}}}}}}}}}}}}}}}}}}}}K4 |||",
"||||||||||| 5}}}}}}}}}}}}}}}}}}}}}}}}}}}}}}}}}}}}}}}}}}}}}}}5 ||",
"|||||||||| 7}}}}}}}}}}}}}}}}}}}}}}}}}}}}}}}}}}}}}}}}}}}}}}}}}$ |",
"||||||||| w}}}}}}}}}}}}}}}}}}}}}}}}}}}}}}}}}}}}}}}}}}}}}}}}}5 ||",
"|||||||| q}}}}}}}}}}}}}}}}}}}}}}}}}}}}}}}}}}}}}}}}}}}}}}}}Y4 |||",
"||||||| 5}}}}}}}}}}}}}}}}}}}}}}}}}}}}}}}}}}}}}}}}}}}}}}}}K  ||||",
"|||||| 5}}}}}}}}}}}}}}}}}}}}}}}}}}}}}}}}}}}}}}}}}}}}}}}}b  |||||",
"|||||  ]}}}}}}}}}}}}}}}}}}}}}}}}}}}}Vl/}}}}}}}}}}}}}}}}5 |||||||",
"||||| K}}}}}}}}}}}}}}}}}}}}}}}}}}}K    5}}}}}}}}}}}}}Q5 ||||||||",
"|||| 6}}}}}}}}}}}}}}}}}}}}}}}}}}}I      y}}}}}}}}}}}K  |||||||||",
"|||  )}}}}}}}}}}}}}}}}}}}}}}}}}}}l       }}}}}}}}}}m  ||||||||||",
"||| k}}}}}}}}}}}}}}}}}}}}}}}}}}}}l       }}}}}}}}}5 ||||||||||||",
"||  }}}}}}}}}}}}}}}}}}}}}}}}}}}}}}%     S}}}}}}}!5 |||||||||||||",
"|| i}}}}}}}}}}}}}}}}}}}}}}}}}}}}}}'t  *J}}}}}}}K  ||||||||||||||",
"|| K}}}}}}}}}}}}}}}}}}}}}}}}}}}}}}}}}}}}}}}}}}b  |||||||||||||||",
"|  }}}}}}}}}}}}}}}}}}}}}}}}}}}}}}}}}}}}}}}}}}5 |||||||||||||||||",
"| l}}}}}}}}}}}}}}}}}}}}}}}}}}}}}}}}}}}}}}}}T3 ||||||||||||||||||",
"| l}}}}}}}}}}}}}}}}}}}}}}}}}}}}}}}}}}}}}}}K  |||||||||||||||||||",
"  _}}}}}}}}}}}}}}}}}}}}}}}}}}}}}}}}}}}}}}x  ||||||||||||||||||||",
"  }}}}}}}}}}}}}}}}}}}}}}}}}}}}}}}}}}}}}}5 ||||||||||||||||||||||",
"  }}}}}}}}}}}}}}}}}}}}}}}}}}}}}}}}}}}}R3 |||||||||||||||||||||||",
" &}}}}}}}}}}}}}}}}}}}}}}}}}}}}}}}}}}}K  ||||||||||||||||||||||||",
" s}}}}}}}}}}}}}}}}}}}}}}}}}}}}}}}}}}c  |||||||||||||||||||||||||",
" j}}}}}}}}}}}}}}}}}}}}}}}}}}}}}}}}}K  ||||||||||||||||||||||||||",
" r}}}}}}}}}}}}}}}}}}}}}}}}}}}}}}}}}}K  |||||||||||||||||||||||||",
" @}}}}}}}}}}}}}}}}}}}}}}}}}}}}}}}}}}}K  ||||||||||||||||||||||||",
"  }}}}}}}}}}}}}}}}}}}}}}}}}}}}}}}}}}}}K  |||||||||||||||||||||||",
"  }}}}}}}}}}}}}}}}}}}}}}}}}}}}}}}}}}}}}K  ||||||||||||||||||||||",
"| W}}}}}}}}}}}}}}}}}}}}}}}}}}}}}}}}}}}}}L. |||||||||||||||||||||",
"| l}}}}}}}}}}}}}}}}}}}}}}}}}}}}}}}}}}}}}}P+ ||||||||||||||||||||",
"| 9}}}}}}}}}}}}}}}}}}}}}}}}}}}}}}}}}}}}}}}^- |||||||||||||||||||",
"|  }}}}}}}}}}}}}}}}}}}}}}}}}}}}}}}}}}}}}}}}`< ||||||||||||||||||",
"|| v}}}}}}}}}}}}}}}}}}}}}}}}}}}}}}}}}}}}}}}}[5 |||||||||||||||||",
"|| 5}}}}}}}}}}}}}}}}}}}}}}}}}}}}}}}}}}}}}}}}}}5 ||||||||||||||||",
"||| K}}}}}}}}}}}}}}}}}}}}}}}}}}}}}}}}}}}}}}}}}}5 |||||||||||||||",
"||| 5}}}}}}}}}}}}}}}}}}}}}}}}}}}}}}}}}}}}}}}}}}}5 ||||||||||||||",
"|||| K}}}}}}}}}}}}}}}}}}}}}}}}}}}}}}}}}}}}}}}}}}}5 |||||||||||||",
"|||| :}}}}}}}}}}}}}}}}}}}}}}}}}}}}}}}}}}}}}}}}}}}}5 ||||||||||||",
"||||| h}}}}}}}}}}}}}}}}}}}}}}}}}}}}}}}}}}}}}}}}}}}}5 |||||||||||",
"|||||  K}}}}}}}}}}}}}}}}}}}}}}}}}}}}}}}}}}}}}}}}}}}}5 ||||||||||",
"||||||  ^}}}}}}}}}}}}}}}}}}}}}}}}}}}}}}}}}}}}}}}}}}}}5 |||||||||",
"||||||| 2}}}}}}}}}}}}}}}}}}}}}}}}}}}}}}}}}}}}}}}}}}}}}0 ||||||||",
"|||||||| 5}}}}}}}}}}}}}}}}}}}}}}}}}}}}}}}}}}}}}}}}}}}}}e |||||||",
"||||||||| 5}}}}}}}}}}}}}}}}}}}}}}}}}}}}}}}}}}}}}}}}}}}}}b  |||||",
"|||||||||| >E}}}}}}}}}}}}}}}}}}}}}}}}}}}}}}}}}}}}}}}}}}}}F  ||||",
"|||||||||||  K}}}}}}}}}}}}}}}}}}}}}}}}}}}}}}}}}}}}}}}}}}}}J  |||",
"||||||||||||  a}}}}}}}}}}}}}}}}}}}}}}}}}}}}}}}}}}}}}}}}}}}x  |||",
"|||||||||||||| ;K}}}}}}}}}}}}}}}}}}}}}}}}}}}}}}}}}}}}}}}K5  ||||",
"|||||||||||||||  5~}}}}}}}}}}}}}}}}}}}}}}}}}}}}}}}}}}}{u  ||||||",
"|||||||||||||||||  tU}}}}}}}}}}}}}}}}}}}}}}}}}}}}}}}(k  ||||||||",
"|||||||||||||||||||  5B}}}}}}}}}}}}}}}}}}}}}}}}}}}G8  ||||||||||",
"|||||||||||||||||||||   pz}}}}}}}}}}}}}}}}}}}}}Ck   ||||||||||||",
"||||||||||||||||||||||||    llZ}}}}}}}}}}}Fll#    ||||||||||||||",
"|||||||||||||||||||||||||||                   ||||||||||||||||||",
"|||||||||||||||||||||||||||||||||       ||||||||||||||||||||||||",
"||||||||||||||||||||||||||||||||||||||||||||||||||||||||||||||||"
};
