/* XPM */
static char *result[] = {
/* columns rows colors chars-per-pixel */
"64 64 31 1 ",
"  c #D6A200",
". c #D6A301",
"X c #DAAA0C",
"o c #E7B417",
"O c #E2BB26",
"+ c #E6C432",
"@ c #E8C636",
"# c #FCCA33",
"$ c #FCCC35",
"% c #FCCE3A",
"& c #FDD546",
"* c #FDD94C",
"= c #F3DE59",
"- c #FCE057",
"; c #FDE45F",
": c #F7E666",
"> c #F7E766",
", c #FDE663",
"< c #FDE764",
"1 c #FAEC6E",
"2 c #FDEC6D",
"3 c #FDEF71",
"4 c #FDF175",
"5 c #FDF277",
"6 c #FEF477",
"7 c #FCF278",
"8 c #FDF378",
"9 c #FEF479",
"0 c #FEFCDC",
"q c #FEFCDD",
"w c None",
/* pixels */
"wwwwwwwwwwwwwwwwwwwwwwwwwwwwwwwwwwwwwwwwwwwwwwwwwwwwwwwwwwwwwwww",
"wwwwwwwwwwwwwwwwwwwwwwwwwwwwwwwwwwwwwwwwwwwwwwwwwwwwwwwwwwwwwwww",
"wwwwwwwwwwwwwwwwwwwwwwwwwwwwwwwwwwwwwwwwwwwwwwwwwwwwwwwwwwwwwwww",
"wwwwwwwwwwwwwwwwwwwwwwwwwwwwwwwwwwwwwwwwwwwwwwwwwwwwwwwwwwwwwwww",
"wwwwwwwwwwwwwwwwwwwwwwwwwww8888888888wwwwwwwwwwwwwwwwwwwwwwwwwww",
"wwwwwwwwwwwwwwwwwwwwwww888888888888888885wwwwwwwwwwwwwwwwwwwwwww",
"wwwwwwwwwwwwwwwwwwwww8888888888888888888888wwwwwwwwwwwwwwwwwwwww",
"wwwwwwwwwwwwwwwwwww88888888888888888888888888wwwwwwwwwwwwwwwwwww",
"wwwwwwwwwwwwwwwww888888888888888888888888888888wwwwwwwwwwwwwwwww",
"wwwwwwwwwwwwwwww8888888888############8888888888wwwwwwwwwwwwwwww",
"wwwwwwwwwwwwww888888888##################88888888wwwwwwwwwwwwwww",
"wwwwwwwwwwwww88888888######################8888888wwwwwwwwwwwwww",
"wwwwwwwwwwww0888888#########################8888888wwwwwwwwwwwww",
"wwwwwwwwwww0008888############################888888wwwwwwwwwwww",
"wwwwwwwwwww000888##############################888888wwwwwwwwwww",
"wwwwwwwwww000888#######2########################888888wwwwwwwwww",
"wwwwwwwww800888#######88 ########################888888wwwwwwwww",
"wwwwwwww788088######8888888888>###################88888wwwwwwwww",
"wwwwwwww88888########88888888888 #################888888wwwwwwww",
"wwwwwww888888########888888888888 #################88888wwwwwwww",
"wwwwwww88888########488888888888: ##################88888wwwwwww",
"wwwwwww88888########88888  #888X ###################88888wwwwwww",
"wwwwww88888#########8888@ ###8  #####################8888wwwwwww",
"wwwwww88888#########8888 ############################88888wwwwww",
"wwwwww8888##########88881############################88888wwwwww",
"wwwww88888##########88888 ############################8888wwwwww",
"wwwww88888##########888888.###########################8888wwwwww",
"wwwww88888##########%888888 ##########################88888wwwww",
"wwwww88888###########88888888O########################88888wwwww",
"wwwww8888;############88888888888888##################88888wwwww",
"wwwww8888##############888888888888888+###############88888wwwww",
"wwwww8888###############8888888888888888 #############88888wwwww",
"wwwww8888*################$888888888888881############88888wwwww",
"wwwww88888#####################88888888888 ###########88888wwwww",
"wwwww88888##########################8888888 ##########88888wwwww",
"wwwww88888############################888888o#########88886wwwww",
"wwwww88888#############################88888 #########8888wwwwww",
"wwwwww8888#############################88888 ########88888wwwwww",
"wwwwww88888############################88888 ########88888wwwwww",
"wwwwww88888#####################8 #####88888 ########88888wwwwww",
"wwwwwww88883###################888 ####88888 #######88888wwwwwww",
"wwwwwww88888#################888888888888888 #######88888wwwwwww",
"wwwwwww888888#################8888888888888 #######88888wwwwwwww",
"wwwwwwww88888##################88888888888 #######&88888wwwwwwww",
"wwwwwwww888888##################88888888888 ######88888wwwwwwwww",
"wwwwwwwww888888###################888888888 #####888888wwwwwwwww",
"wwwwwwwwww888888#######################88= #####888888wwwwwwwwww",
"wwwwwwwwww8888888##############################888008wwwwwwwwwww",
"wwwwwwwwwww8888888############################888000qwwwwwwwwwww",
"wwwwwwwwwwww8888888##########################8880000wwwwwwwwwwww",
"wwwwwwwwwwwww88888888######################88888000wwwwwwwwwwwww",
"wwwwwwwwwwwwww888888888##################888888880wwwwwwwwwwwwww",
"wwwwwwwwwwwwwww8888888888#############<888888888wwwwwwwwwwwwwwww",
"wwwwwwwwwwwwwwwww88888888888888-,88888888888888wwwwwwwwwwwwwwwww",
"wwwwwwwwwwwwwwwwww888888888888888888888888888wwwwwwwwwwwwwwwwwww",
"wwwwwwwwwwwwwwwwwwww88888888888888888888888wwwwwwwwwwwwwwwwwwwww",
"wwwwwwwwwwwwwwwwwwwwwww888888888888888888wwwwwwwwwwwwwwwwwwwwwww",
"wwwwwwwwwwwwwwwwwwwwwwwwww888888888889wwwwwwwwwwwwwwwwwwwwwwwwww",
"wwwwwwwwwwwwwwwwwwwwwwwwwwwwwwwwwwwwwwwwwwwwwwwwwwwwwwwwwwwwwwww",
"wwwwwwwwwwwwwwwwwwwwwwwwwwwwwwwwwwwwwwwwwwwwwwwwwwwwwwwwwwwwwwww",
"wwwwwwwwwwwwwwwwwwwwwwwwwwwwwwwwwwwwwwwwwwwwwwwwwwwwwwwwwwwwwwww",
"wwwwwwwwwwwwwwwwwwwwwwwwwwwwwwwwwwwwwwwwwwwwwwwwwwwwwwwwwwwwwwww",
"wwwwwwwwwwwwwwwwwwwwwwwwwwwwwwwwwwwwwwwwwwwwwwwwwwwwwwwwwwwwwwww",
"wwwwwwwwwwwwwwwwwwwwwwwwwwwwwwwwwwwwwwwwwwwwwwwwwwwwwwwwwwwwwwww"
};
