/* XPM */
static char *result[] = {
/* columns rows colors chars-per-pixel */
"64 64 173 2 ",
"   c #93521A",
".  c #945319",
"X  c #955319",
"o  c #94531A",
"O  c #95531A",
"+  c #94541A",
"@  c #95541A",
"#  c #96551A",
"$  c #96551B",
"%  c #97551B",
"&  c #97551C",
"*  c #98571B",
"=  c #97581B",
"-  c #99581B",
";  c #9B5A1A",
":  c #9B5D1B",
">  c #9E5D1B",
",  c #9B581E",
"<  c #9D5E1C",
"1  c #9D5F1C",
"2  c #A1601C",
"3  c #A2611C",
"4  c #A1631D",
"5  c #A2621C",
"6  c #A0601E",
"7  c #A4631C",
"8  c #A2661D",
"9  c #A4641C",
"0  c #A6651C",
"q  c #A8671D",
"w  c #A76A1E",
"e  c #A76B1E",
"r  c #AD6D1D",
"t  c #AF6F1E",
"y  c #B0701D",
"u  c #B2711D",
"i  c #B2721E",
"p  c #B3741F",
"a  c #A86D21",
"s  c #AE6E21",
"d  c #AB7223",
"f  c #AE7421",
"g  c #AE7620",
"h  c #B67F22",
"j  c #B37925",
"k  c #B47924",
"l  c #C07333",
"z  c #C17333",
"x  c #C27333",
"c  c #B98322",
"v  c #BC8623",
"b  c #BE8824",
"n  c #C0801F",
"m  c #C38320",
"M  c #C18D24",
"N  c #C98922",
"B  c #CD8C21",
"V  c #CE8D21",
"C  c #CF8E21",
"Z  c #CE8D22",
"A  c #D08F21",
"S  c #C39024",
"D  c #C49124",
"F  c #C4902F",
"G  c #C89429",
"H  c #C89629",
"J  c #D29122",
"K  c #D49322",
"L  c #D69522",
"P  c #D79622",
"I  c #D09D26",
"U  c #D99B24",
"Y  c #DA9D24",
"T  c #DC9F24",
"R  c #CD8832",
"E  c #DCA125",
"W  c #DDA325",
"Q  c #D2A328",
"!  c #D3A328",
"~  c #D5A528",
"^  c #D5A629",
"/  c #DAAD2A",
"(  c #DCA330",
")  c #D2A832",
"_  c #DFBA37",
"`  c #DAB239",
"'  c #E1AA27",
"]  c #E1AC27",
"[  c #E2AE28",
"{  c #E1AE2E",
"}  c #E1B62B",
"|  c #E6B42A",
" . c #E2B72C",
".. c #E7B82A",
"X. c #E7B82B",
"o. c #E6BB2C",
"O. c #E9BA2B",
"+. c #E9BC2B",
"@. c #E8BA2F",
"#. c #EABE2F",
"$. c #E3B232",
"%. c #EBC02C",
"&. c #EAC12D",
"*. c #EBC02E",
"=. c #ECC12C",
"-. c #EDC22D",
";. c #EDC32D",
":. c #EFC72D",
">. c #EDC42E",
",. c #EEC62E",
"<. c #EFC72E",
"1. c #EFC72F",
"2. c #EFC82D",
"3. c #EFC82F",
"4. c #F0C82F",
"5. c #EFC830",
"6. c #EFC831",
"7. c #E5C139",
"8. c #E4C23C",
"9. c #EDCA3E",
"0. c #F0C931",
"q. c #F0CB31",
"w. c #F0CA32",
"e. c #F0CC31",
"r. c #F1CC34",
"t. c #F2CF39",
"y. c #F1D235",
"u. c #F2D235",
"i. c #F2D638",
"p. c #F2D13C",
"a. c #F3D23E",
"s. c #F3DA3A",
"d. c #F2DC3C",
"f. c #EECC40",
"g. c #F0CE41",
"h. c #F3D440",
"j. c #F4D642",
"k. c #F3D644",
"l. c #F2D646",
"z. c #F3D646",
"x. c #F3D746",
"c. c #F3D747",
"v. c #F4D746",
"b. c #F4D946",
"n. c #F4D847",
"m. c #F5D847",
"M. c #F4D947",
"N. c #F5D947",
"B. c #F4D848",
"V. c #F4D948",
"C. c #F5DA48",
"Z. c #F5DB48",
"A. c #F5DA49",
"S. c #F5DB49",
"D. c #F6DB48",
"F. c #F5DB4B",
"G. c #F5DC4E",
"H. c #F6DD51",
"J. c #F6DE53",
"K. c #F8FD51",
"L. c #F9FE52",
"P. c #F8FF52",
"I. c #F9E86D",
"U. c #FAEB75",
"Y. c #FBF185",
"T. c #FCF58E",
"R. c #FDF895",
"E. c #FEF99A",
"W. c #FDFA9B",
"Q. c #FEFC9F",
"!. c #FEFCA0",
"~. c #FEFDA2",
"^. c None",
/* pixels */
"^.^.^.^.^.^.^.^.^.^.^.^.^.^.^.^.^.^.^.^.^.^.^.^.^.^.^.Z.C.C.C.C.C.C.C.d ^.^.^.^.^.^.^.^.^.^.^.^.^.^.^.^.^.^.^.^.^.^.^.^.^.^.^.^.",
"^.^.^.^.^.^.^.^.^.^.^.^.^.^.^.^.^.^.^.^.^.^.V.C.C.C.C.C.C.C.C.C.C.C.C.C.C.C.x.o O ^.^.^.^.^.^.^.^.^.^.^.^.^.^.^.^.^.^.^.^.^.^.^.",
"^.^.^.^.^.^.^.^.^.^.^.^.^.^.^.^.^.^.^.D.C.C.C.C.C.C.C.C.C.C.C.C.C.C.C.C.C.C.C.C.C.F o   ^.^.^.^.^.^.^.^.^.^.^.^.^.^.^.^.^.^.^.^.",
"^.^.^.^.^.^.^.^.^.^.^.^.^.^.^.^.^.C.C.C.C.C.C.C.C.C.C.C.C.C.C.C.C.C.C.C.C.C.C.C.C.C.C.c o o ^.^.^.^.^.^.^.^.^.^.^.^.^.^.^.^.^.^.",
"^.^.^.^.^.^.^.^.^.^.^.^.^.^.^.A.C.C.C.C.C.C.C.C.C.C.C.C.C.C.C.C.C.C.C.C.C.C.C.C.C.C.C.<.<.o o o ^.^.^.^.^.^.^.^.^.^.^.^.^.^.^.^.",
"^.^.^.^.^.^.^.^.^.^.^.^.^.^.C.C.C.C.C.C.C.C.C.C.C.C.C.C.C.C.C.C.C.C.C.C.C.C.C.C.C.C.C.<.<.<. .o o + ^.^.^.^.^.^.^.^.^.^.^.^.^.^.",
"^.^.^.^.^.^.^.^.^.^.^.^.C.F.~.~.~.~.~.~.C.C.C.C.C.C.C.C.C.C.C.C.C.C.C.C.C.C.C.C.C.C.w.<.<.<.<.<.o o o ^.^.^.^.^.^.^.^.^.^.^.^.^.",
"^.^.^.^.^.^.^.^.^.^.^.C.~.~.~.~.~.~.~.~.C.C.C.C.C.C.C.C.C.C.C.C.C.C.C.C.C.C.C.C.C.C.<.<.<.<.<.<.<.o o o ^.^.^.^.^.^.^.^.^.^.^.^.",
"^.^.^.^.^.^.^.^.^.^.I.~.~.~.~.~.~.~.~.~.C.C.C.C.C.C.C.C.C.C.C.C.C.C.C.C.C.C.C.C.C.C.<.<.<.<.<.<.<.<.o o o X ^.^.^.^.^.^.^.^.^.^.",
"^.^.^.^.^.^.^.^.^.E.~.~.~.~.~.~.~.~.~.C.C.C.C.C.C.C.) o o o 2 L L g.C.C.C.C.C.C.C.<.<.<.<.<.<.<.<.<.<.& & & $ ^.^.^.^.^.^.^.^.^.",
"^.^.^.^.^.^.^.^.T.~.~.~.~.~.~.~.~.~.C.C.C.C.C.o o o o L L L L L L L L L P C.C.C.C.<.<.<.<.<.<.<.<.<.<.<.z z z l ^.^.^.^.^.^.^.^.",
"^.^.^.^.^.^.^.F.~.~.~.~.~.~.~.~.~.C.C.C.` o o o * L L L L L L L L L L L L L L m.4.<.<.<.<.<.<.<.<.<.<.<.<.z z z ^.^.^.^.^.^.^.^.",
"^.^.^.^.^.^.C.~.~.~.~.~.~.~.~.~.C.C.C.o o o o L L L L L L L L L L L L L L L L L L <.<.<.<.<.<.<.<.<.<.<.<.@.z z z ^.^.^.^.^.^.^.",
"^.^.^.^.^.^.!.~.~.~.~.~.~.~.~.C.C.j o o o 3 L L L L L L L L L L L L L L L L L L L L =.<.<.<.<.<.<.<.<.<.<.<.z z z z ^.^.^.^.^.^.",
"^.^.^.^.^.C.~.~.~.~.~.~.~.~.C.C.o o o o C L L L L L L L L L L L L L L L L L L L L L L T <.<.<.<.<.<.<.<.<.<.<.z z z z ^.^.^.^.^.",
"^.^.^.^.C.R.~.~.~.~.~.~.~.F.C.o o o o J L L L L L L L L L L L L L L L L L L L L L L L L U <.<.<.<.<.<.<.<.<.<.( z z z ^.^.^.^.^.",
"^.^.^.^.C.~.~.~.~.~.~.~.G.C.o o o o B L L L L L L L L L L L L L L L L L L L L L L L L L L W <.<.<.<.<.<.<.<.<.<.z z z z ^.^.^.^.",
"^.^.^.C.C.~.~.~.~.~.~.U.C.a o o o 5 L L L L L L L L L L L C.b.o o L L L L L L L L L L L L L ;.<.<.<.<.<.<.<.<.<.#.z z z z ^.^.^.",
"^.^.^.C.C.~.~.~.~.~.W.C.n.o o o o L L L L L L L L L L L C.H.C.o o L L L L L L L L L L L L L L <.<.<.<.<.<.<.<.<.<.z z z z ^.^.^.",
"^.^.Z.C.C.~.~.~.~.~.C.C.o o o o L L L L L L L L L L L L Q.~.Y.k.o o L L L L L L L L L L L L L L <.<.<.<.<.<.<.<.<.f o o o O ^.^.",
"^.^.C.C.C.~.~.~.~.C.C.s o o o ; L L L L L L L L L L L B.~.~.~.C.o o L L L L L L L L L L L L L L ,.<.<.<.<.<.<.<.<.<.o o o o ^.^.",
"^.^.C.C.C.~.~.~.C.C.C.o o o o L L L L L L L L L L L L A.~.~.~.C.7.o o L L L L L L L L L L L L L L <.<.<.<.<.<.<.<.<.o o o o ^.^.",
"^.C.C.C.C.C.C.C.C.C.k o o o * L L L L L L L L L L L 9.J.~.~.~.C.C.o o L L L L L L L L L L L L L L <.<.<.<.<.<.<.<.<.Q o o o o ^.",
"^.C.C.C.C.C.C.C.C.C.o o o o L L L L L L L L L L L L C.C.~.~.~.C.C.S o - L L L L L L L L L L L L L L <.<.<.<.<.<.<.<.<.o o o o ^.",
"^.C.C.C.C.C.C.C.C.C.o o o o L L L L L L L L L L L { C.C.C.C.C.C.j.<.o o L L L L L L L L L L L L L L <.<.<.<.<.<.<.<.<.o o o o ^.",
"^.C.C.C.C.C.C.C.C.@ o o o 7 L L L L L L L L L L z.C.C.C.C.C.C.C.<.<.<.v o p L L L L L L L L L L L L -.<.<.<.<.<.<.<.<.o o o o ^.",
"Z.C.C.C.C.C.C.C.C.o o o o L L L L $.N.C.C.C.C.C.C.C.C.C.C.C.C.<.<.<.<.<.<.<.<.<.<.^ = 9 V L L L L L L <.<.<.<.<.<.<.<.g o o o . ",
"S.C.C.C.C.C.C.C.C.o o o o L L L C.C.C.C.C.C.C.C.C.C.C.C.C.C.<.<.<.<.<.<.<.<.<.<.<.<.<.o o L L L L L L <.<.<.<.<.<.<.<.*.z z z z ",
"C.C.C.C.C.C.C.C.C.o o o o L L L f.C.C.C.C.C.C.C.C.C.C.C.C.3.<.<.<.<.<.<.<.<.<.<.<.<.<.o o L L L L L L <.<.<.<.<.<.<.<.<.z z z z ",
"C.C.C.C.C.C.C.C.n.o o o o L L L L v.C.C.C.C.C.C.C.C.C.C.r.<.<.<.<.<.<.<.<.<.<.<.<.<.o o L L L L L L L <.<.<.<.<.<.<.<.<.z z z z ",
"C.C.C.C.C.C.C.C.8.o o o o L L L L L M.C.C.C.C.C.C.C.C.p.<.<.<.<.<.<.<.<.<.<.<.<.<.o o L L L L L L L L <.<.<.<.<.<.<.<.<.z z z z ",
"C.C.C.C.C.C.C.C.H o o o o L L L L L L N.C.C.C.C.C.C.h.<.<.<.<.<.<.<.<.<.<.<.<.<.o o L L L L L L L L L <.<.<.<.<.<.<.<.<.z z z z ",
"C.C.C.C.C.C.C.C.G o o o o L L L L L L L C.C.C.C.C.a.<.<.<.<.<.<.<.<.<.<.<.<.<.o o J L L L L L L L L L <.<.<.<.<.<.<.<.<.z z z z ",
"C.C.C.C.C.C.C.C._ o o o o L L L L L L L L C.C.C.t.<.<.<.<.<.<.<.<.<.<.<.<.<.# o A L L L L L L L L L L <.<.<.<.<.<.<.<.<.z z z z ",
"C.C.C.C.C.C.C.C.c.o o o o L L L L L L L L L C.5.<.<.<.<.<.<.<.<.<.<.<.<.<.8 o y L L L L L L L L L L L <.<.<.<.<.<.<.<.<.z z z z ",
"C.C.C.C.C.C.C.C.C.o o o o L L L L L L L L L <.<.<.<.<.<.<.<.<.<.<.<.<.<.<.o o K L L L L L L L L L L L <.<.<.<.<.<.<.<.<.z z z z ",
"M.C.C.C.C.C.C.C.C.o o o o L L L L L L L L L <.<.<.<.<.<.<.<.<.<.<.<.<.<.<.h o o L L L L L L L L L L L <.<.<.<.<.<.<.<.>.z z z z ",
"^.C.C.C.C.C.C.C.C.o o o o L L L L L L L L L <.<.<.<.<.<.<.<.<.<.<.<.<.<.<.<.o o L L L L L L L L L L L <.<.<.<.<.<.<.<.M o o o o ",
"^.C.C.C.C.C.C.C.C.o o o o t L L L L L L L L <.<.<.<.<.<.<.<.<.<.<.<.<.<.<.<.o o L L L L L L L L L L +.<.<.<.<.<.<.<.<.o o o o ^.",
"^.C.C.C.C.C.C.C.C.l.o o o o L L L L L L L Y <.<.<.<.<.<.<.<.<.<.<.<.<.<.<.<.o o L L L L L L L L L L <.<.<.<.<.<.<.<.<.o o o o ^.",
"^.C.C.C.C.C.C.C.C.C.o o o o L L L L L L L ;.<.<.<.<.<.<.<.&.<.<.<.<.<.<.<.<.o o L L L L L L L L L L <.<.<.<.<.<.<.<.<.o o o o ^.",
"^.S.C.C.C.C.C.C.C.C.% o o o q L L L L L L <.<.<.<.<.<.<.o o L Y <.<.<.<.<.<.o o L L L L L L L L L =.<.<.<.<.<.<.<.<.o.o o o o ^.",
"^.^.C.C.C.C.C.C.C.C.C.o o o o L L L L L L <.<.<.<.<.o o L L L L L ..<.<.<.<.4 o 5 L L L L L L L L <.<.<.<.<.<.<.<.<.o o o o ^.^.",
"^.^.C.C.C.C.C.C.C.C.0.o o o o i L L L L L <.<.<.1 o N L L L L L L L L <.<.<./ o @ L L L L L L L O.<.<.<.<.<.<.<.<.<.o o o o ^.^.",
"^.^.Z.C.C.C.C.C.<.<.<.<.o o o o L L L L L L [ L r L L L L L L L L L L L L X.L 0 L L L L L L L L <.<.<.<.<.<.<.<.<.} o o o o ^.^.",
"^.^.^.C.C.C.<.<.<.<.<.<.~ o o o o L L L L L L L L L L L L L L L L L L L L L L L L L L L L L L <.<.<.<.<.<.<.<.<.<.z z z z ^.^.^.",
"^.^.^.6.<.<.<.<.<.<.<.<.<.o o o o m L L L L L L L L L L L L L L L L L L L L L L L L L L L L ] <.<.<.<.K.y.<.<.<.<.z z z x ^.^.^.",
"^.^.^.^.<.<.<.<.<.<.<.<.<.<.o o o o L L L L L L L L L L L L L L L L L L L L L L L L L L L L <.<.<.<.P.P.P.<.<.<.z z z z ^.^.^.^.",
"^.^.^.^.:.<.<.<.<.<.<.<.<.<.<.o o o o L L L L L L L L L L L L L L L L L L L L L L L L L L <.<.<.<.P.P.P.P.<.<.<.z z z z ^.^.^.^.",
"^.^.^.^.^.<.<.<.<.<.<.<.<.<.<.<.o o o o L L L L L L L L L L L L L L L L L L L L L L L L <.<.<.<.P.P.P.P.L.<.<.z z z z ^.^.^.^.^.",
"^.^.^.^.^.^.<.<.<.<.<.<.<.<.<.<.<.o o o o Z L L L L L L L L L L L L L L L L L L L L E <.<.<.<.P.P.P.P.P.<.<.R z z z ^.^.^.^.^.^.",
"^.^.^.^.^.^.<.<.<.<.<.<.<.<.<.<.<.<.I o o o o L L L L L L L L L L L L L L L L L L <.<.<.<.<.P.P.P.P.P.P.<.<.z z z x ^.^.^.^.^.^.",
"^.^.^.^.^.^.^.<.<.<.<.<.<.<.<.<.<.<.<.<.@ o o o n L L L L L L L L L L L L L L ' <.<.<.<.e.P.P.P.P.P.P.<.<.z z z z ^.^.^.^.^.^.^.",
"^.^.^.^.^.^.^.^.<.<.<.<.<.<.<.<.<.<.<.<.<.<.w o o o u L L L L L L L L L L | <.<.<.<.<.s.P.P.P.P.P.P.i.<.z z z z ^.^.^.^.^.^.^.^.",
"^.^.^.^.^.^.^.^.^.<.<.<.<.<.<.<.<.<.<.<.<.<.<.<.<.! o o o > L L L L %.<.<.<.<.<.<.<.u.P.P.P.P.P.P.d.<.6 , , , ^.^.^.^.^.^.^.^.^.",
"^.^.^.^.^.^.^.^.^.^.<.<.<.<.<.<.<.<.<.<.<.<.<.<.<.<.<.<.<.<.<.<.<.<.<.<.<.<.<.<.<.<.P.P.P.P.P.P.<.<.e o o o ^.^.^.^.^.^.^.^.^.^.",
"^.^.^.^.^.^.^.^.^.^.^.<.<.<.<.<.<.<.<.<.<.<.<.<.<.<.<.<.<.<.<.<.<.<.<.<.<.<.<.<.<.<.P.P.P.P.q.<.<.< o o o ^.^.^.^.^.^.^.^.^.^.^.",
"^.^.^.^.^.^.^.^.^.^.^.^.<.<.<.<.<.<.<.<.<.<.<.<.<.<.<.<.<.<.<.<.<.<.<.<.<.<.<.<.<.<.<.<.<.<.<.<.o o o ^.^.^.^.^.^.^.^.^.^.^.^.^.",
"^.^.^.^.^.^.^.^.^.^.^.^.^.<.<.<.<.<.<.<.<.<.<.<.<.<.<.<.<.<.<.<.<.<.<.<.<.<.<.<.<.<.<.<.<.<.<.o o o ^.^.^.^.^.^.^.^.^.^.^.^.^.^.",
"^.^.^.^.^.^.^.^.^.^.^.^.^.^.^.<.<.<.<.<.<.<.<.<.<.<.<.<.<.<.<.<.<.<.<.<.<.<.<.<.<.<.<.<.<.D o o ^.^.^.^.^.^.^.^.^.^.^.^.^.^.^.^.",
"^.^.^.^.^.^.^.^.^.^.^.^.^.^.^.^.,.<.<.<.<.<.<.<.<.<.<.<.<.<.<.<.<.<.<.<.<.<.<.<.<.<.<.,.o o ^.^.^.^.^.^.^.^.^.^.^.^.^.^.^.^.^.^.",
"^.^.^.^.^.^.^.^.^.^.^.^.^.^.^.^.^.^.1.<.<.<.<.<.<.<.<.<.<.<.<.<.<.<.<.<.<.<.<.<.<.<.o o ^.^.^.^.^.^.^.^.^.^.^.^.^.^.^.^.^.^.^.^.",
"^.^.^.^.^.^.^.^.^.^.^.^.^.^.^.^.^.^.^.^.^.<.<.<.<.<.<.<.<.<.<.<.<.<.<.<.<.<.<.b o ^.^.^.^.^.^.^.^.^.^.^.^.^.^.^.^.^.^.^.^.^.^.^.",
"^.^.^.^.^.^.^.^.^.^.^.^.^.^.^.^.^.^.^.^.^.^.^.^.^.2.<.<.<.<.<.<.<.<.<.o.: ^.^.^.^.^.^.^.^.^.^.^.^.^.^.^.^.^.^.^.^.^.^.^.^.^.^.^."
};
