/* XPM */
static char *result[] = {
/* columns rows colors chars-per-pixel */
"64 64 134 2 ",
"   c #756A3F",
".  c #786C3E",
"X  c #3D4145",
"o  c #434545",
"O  c #4C4346",
"+  c #464944",
"@  c #4B4C44",
"#  c #504F43",
"$  c #535243",
"%  c #5A5844",
"&  c #4E5256",
"*  c #604346",
"=  c #6B4346",
"-  c #704446",
";  c #635E42",
":  c #676040",
">  c #6B6542",
",  c #726840",
"<  c #7C7341",
"1  c #636669",
"2  c #6E7174",
"3  c #707376",
"4  c #CC3E3E",
"5  c #D13E3E",
"6  c #86773E",
"7  c #8C7B3C",
"8  c #917E3C",
"9  c #D35C3E",
"0  c #874547",
"q  c #914648",
"w  c #9E4749",
"e  c #A34748",
"r  c #AA4748",
"t  c #B64748",
"y  c #857A41",
"u  c #C74040",
"i  c #CB4141",
"p  c #C4494A",
"a  c #CF4949",
"s  c #D24242",
"d  c #DA4444",
"f  c #D74B4B",
"g  c #DC4A4A",
"h  c #DC5449",
"j  c #E34A4A",
"k  c #E55348",
"l  c #E35E48",
"z  c #E76147",
"x  c #E76B43",
"c  c #E97841",
"v  c #94813C",
"b  c #9B863B",
"n  c #97893F",
"m  c #9D8A3D",
"M  c #A28C3B",
"N  c #A98F39",
"B  c #A6943F",
"V  c #A9973F",
"C  c #AC993E",
"Z  c #BA9C37",
"A  c #B59C3C",
"S  c #BA9B38",
"D  c #B6A13D",
"F  c #BCA53D",
"G  c #E58936",
"H  c #E28F3D",
"J  c #E29D36",
"K  c #C2A237",
"L  c #CAA735",
"P  c #CFAB36",
"I  c #C5AC3C",
"U  c #CCAF3D",
"Y  c #D1AD36",
"T  c #CFB33B",
"R  c #DCB434",
"E  c #D1B63C",
"W  c #D6B93C",
"Q  c #DABD3B",
"!  c #EFA737",
"~  c #E9A738",
"^  c #E5BB34",
"/  c #EABE33",
"(  c #EDB23D",
")  c #ECBE3D",
"_  c #F1B733",
"`  c #DDC03D",
"'  c #EDC132",
"]  c #E2C33A",
"[  c #EDCC3B",
"{  c #F4C631",
"}  c #F5CB34",
"|  c #F9CE34",
" . c #F1C53C",
".. c #FAC33B",
"X. c #F1CF3A",
"o. c #FBD336",
"O. c #FED937",
"+. c #F4D23A",
"@. c #FAD639",
"#. c #FFDA38",
"$. c #8D8140",
"%. c #938541",
"&. c #EF8D42",
"*. c #EFD257",
"=. c #F2D658",
"-. c #F7DA5A",
";. c #FCDE59",
":. c #FEE05D",
">. c #FCE063",
",. c #FDE26C",
"<. c #FDE477",
"1. c #F9E178",
"2. c #838587",
"3. c #848789",
"4. c #888B8D",
"5. c #959799",
"6. c #96999B",
"7. c #989A9C",
"8. c #9EA1A3",
"9. c #A0A3A5",
"0. c #A5A7A9",
"q. c #F2DD82",
"w. c #F0DE8D",
"e. c #F3E194",
"r. c #F7E9AA",
"t. c #FDEDAA",
"y. c #FDF2C3",
"u. c #DFE0E1",
"i. c #E1E2E2",
"p. c #ECEDED",
"a. c #FBF6E1",
"s. c #F4F4F4",
"d. c #FDFDFD",
"f. c None",
/* pixels */
"f.f.f.f.f.f.f.f.f.f.f.f.f.f.f.f.f.f.f.f.f.f.f.f.f.f.f.#.;.O.O.O.O.#.#.#.#.f.f.f.f.f.f.f.f.f.f.f.f.f.f.f.f.f.f.f.f.f.f.f.f.f.f.f.",
"f.f.f.f.f.f.f.f.f.f.f.f.f.f.f.f.f.f.f.f.f.f.f.#.#.#.O.;.#.#.O.O.#.#.#.#.#.;.O.#.#.f.f.f.f.f.f.f.f.f.f.f.f.f.f.f.f.f.f.f.f.f.f.f.",
"f.f.f.f.f.f.f.f.f.f.f.f.f.f.f.f.f.f.f.f.#.#.#.#.@.O.O.O.#.#.#.@.#.@.#.#.#.#.#.#.@.#.#.#.f.f.f.f.f.f.f.f.f.f.f.f.f.f.f.f.f.f.f.f.",
"f.f.f.f.f.f.f.f.f.f.f.f.f.f.f.f.f.f.*.#.#.#.#.#.@.+.O.O.#.#.#.@.+.#.#.#.#.#.@.+.#.#.#.#.#.#.f.f.f.f.f.f.f.f.f.f.f.f.f.f.f.f.f.f.",
"f.f.f.f.f.f.f.f.f.f.f.f.f.f.f.f.f.+.@.+.#.#.#.#.X.@.+.#.#.#.#.X.@.+.#.#.#.#.+.@.@.#.#.#.#.+.@.f.f.f.f.f.f.f.f.f.f.f.f.f.f.f.f.f.",
"f.f.f.f.f.f.f.f.f.f.f.f.f.f.f.O.X.#.#.@.+.#.#.X.#.#.@.+.#.#.X.#.#.@.+.#.#.+.@.#.@.+.#.#.+.#.#.#.X.f.f.f.f.f.f.f.f.f.f.f.f.f.f.f.",
"f.f.f.f.f.f.f.f.f.f.f.f.f.f.+.+.#.#.#.#.@.+.+.#.#.#.#.+.+.X.#.#.#.#.@.+.+.#.#.#.#.@.+.X.#.#.#.#.#.X.f.f.f.f.f.f.f.f.f.f.f.f.f.f.",
"f.f.f.f.f.f.f.f.f.f.f.f.f.O.X.+.#.#.#.#.#.X.+.#.#.#.#.#.X.+.#.#.#.#.#.X.+.#.#.#.#.#.X.+.#.#.#.#.#.X.[ f.f.f.f.f.f.f.f.f.f.f.f.f.",
"f.f.f.f.f.f.f.f.f.f.f.f.@.+.O.] y @ + > D #.@.+.#.#.#.X.#.@.+.O.#.#.+.#.@.X.#.#.#.X.#.D > + # y ` O.@.' f.f.f.f.f.f.f.f.f.f.f.f.",
"f.f.f.f.f.f.f.f.f.f.f.O.+.O.T + X X X % . F #.@.+.#.X.#.#.#.@.+.#.+.@.#.#.@.+.#.X.#.F . % X X X + E #.@.' f.f.f.f.f.f.f.f.f.f.f.",
"f.f.f.f.f.f.f.f.f.f.+.X.#.] + X + n W #.#.#.#.#.+.X.#.O.#.#.#.+.*.#.#.#.#.#.@.[ #.#.#.#.#.` n @ X + ] O.X.^ f.f.f.f.f.f.f.f.f.f.",
"f.f.f.f.f.f.f.f.f.O.X.+.+.; X $.X.X.+.+.#.#.#.#.X.+.+.#.#.#.#.X.| +.#.#.#.#.X.@.+.#.#.#.#.X.@.] $.X ; @.+.' ^ f.f.f.f.f.f.f.f.f.",
"f.f.f.f.f.f.f.f.f.+.#.#.C @ I #.X.#.#.@.@.#.#.+.#.#.@.+.#.#.+.#.O.@.X.#.#.X.#.#.#.+.#.#.+.#.#.#.+.U + V @.o.{ ^ f.f.f.f.f.f.f.f.",
"f.f.f.f.f.f.f.f.+.#.#.O.> W +.X.#.#.#.#.@.+.X.#.#.#.#.@.+.X.#.#.O.O.@.@.X.#.#.#.#.+.+.X.#.#.#.#.@.+.W > O.O.{ ' f.f.f.f.f.f.f.f.",
"f.f.f.f.f.f.f.*.+.O.#.E ] O.X.+.#.#.#.#.#.[ +.#.#.#.#.#.X.+.#.O.O.#.#.X.X.#.#.#.#.#.+.X.#.#.#.#.#.+.+.] E O.| { ] f.f.f.f.f.f.f.",
"f.f.f.f.f.f.f.#.+.@.#.#.#.+.O.+.@.#.#.#.X.#.+.@.#.#.#.X.#.@.+.#.O.O.+.#.@.@.#.#.#.+.#.@.X.#.#.#.+.@.@.+.O.O.o./ { f.f.f.f.f.f.f.",
"f.f.f.f.f.f.O.O.#.+.@.O.X.#.O.O.+.+.o.' } o.o.} +.#.X.O.#.#.@.+.#.+.O.#.#.+.+.#.X.| | | } } #.| @.#.#.@.+.#.+.' { { f.f.f.f.f.f.",
"f.f.f.f.f.f.#.O.#.#.+.X.#.#.O.O.} ' ^ ' { { { { ' [ O.#.#.#.#.+.X.@.#.#.#.O.| / { { { { { ' ^ { O.#.#.#.@.[ @.} { { f.f.f.f.f.f.",
"f.f.f.f.f.+.#.#.#.O.X.+.+.O.| { { ^ ' ' { { { { ' ' { #.O.#.#.X.+.+.O.O.O.| ^ / / { { { { / / / } | #.#.+.+.X.o.{ { } f.f.f.f.f.",
"f.f.f.f.f.+.@.#.O.X.#.#.+.X.{ { ' { { ' ' { { ^ ' { ' { O.#.+.#.#.+.+.O.| ' { { ' / { { / ' { { / } | +.o.#.O.[ { { ' f.f.f.f.f.",
"f.f.f.f.f.#.+.@.+.#.#.#.| / / / { { { { ' ' / { { { { ' [ +.#.O.#.#.@.[ / { { { { ' / / { { { { ' / / } #.O.#.| / / ' f.f.f.f.f.",
"f.f.f.f.f.#.O.[ +.#.#.O.{ { ^ ' R Z M 7 8 7 b Z R { { { ^ +.O.O.#.#.#.^ / { { R S M 8 7 8 M Z R { / ' { #.O.#.#./ / { f.f.f.f.f.",
"f.f.f.f.#.@.+.@.+.O.O.o.{ Y 8 $ X X X X X X X X X # 7 P { } @.O.O.O.' { Y 6 @ X X X X X X X X X $ 7 R / o.#.#.+.' ' ' { f.f.f.f.",
"f.f.f.f.#.+.#.#.O.+.o.{ v o X X X # %         $ X X X X 6 { o.+.@.+.' 7 X o X X # :   .   ; # X X X o 8 ' #.+.o.{ { ' ' f.f.f.f.",
"f.f.f.f.+.#.#.#.#.#.+.y X @ 7 K / / / { { { { { _ Z 8 # X . O.+.X.o.. X # 7 K R { { { { { / / ^ K 7 @ X 6 [ @.O.{ { { { f.f.f.f.",
"f.f.f.f.+.@.#.#.#.#.` X b ' { { { / / / { { { { / / ' { N X W X.+.T o N { { / ' ' { { { { / / / { { ' b o ] +.O.{ { { ' f.f.f.f.",
"f.f.f.f.#.+.@.#.O.+.] Z / ' { { / { { / { { { / { { / ' { L I #.#.T K } { / { { / / { { / { { / / { { / S ] @.+.{ { ' / f.f.f.f.",
"f.f.f.f.#.#.+.@.[ #.#.{ { / ' / { { { { / / / { { { { ' ' ' O.O.#.O.' ' / ' { { { { ' / { { { { ' / / ' { #.O.+.' ' { { f.f.f.f.",
"f.f.f.f.#.#.@.[ @.#.#.{ { { ^ / { { { { { ^ / { { { { { ^ / O.O.O.O.{ ^ ' { { { { { / / { { { { { ^ / { } O.O.o./ ^ { { f.f.f.f.",
"f.f.f.f.#.#.+.O.+.@.#.o.{ / { ' { { { { / { / { { { { / ' { @.O.#.O.' ' ' ' { { { / / / / { { { / { / / | O.O.X.' { ' { f.f.f.f.",
"f.f.f.f.#.+.#.#.#.+.@.o./ { { { / { { / / { { / { { / ' { o.| +.#.+.o.{ { ' ' { / { { { / { { / / { { { X.O.+.{ { { ' / f.f.f.f.",
"f.f.f.f.+.@.#.#.#.#.+.[ } { { { { / ^ { { { { { / / { { | O.O.o.+.@.#.| { { / / { { { { { / / { { { { | @.X.@.{ { { { { f.f.f.f.",
"f.f.f.f.*.@.#.#.O.O.+.+.@.{ { { { ^ / ' } { { { / ' ' | O.#.#.+.+.+.#.#.} { ^ ' ' { { { { / / ' { { } O.+.| +.} { { { ' f.f.f.f.",
"f.f.f.f.O.+.@.O.O.+.O.#.+.+.| { ' { { ' ' { { ' ' { ' +.#.#.+.@.#.+.@.#.#.' ' { / ' { { / { { ' ' { #.+.o.#.} ^ { { ' ' f.f.f.f.",
"f.f.f.f.O.O.+.+.+.@.#.#.O.+.@.[ { { { { ^ { ' ' { o.#.+.@.+.@.#.#.#.+.+.+.o.o.{ { ' ' ' ' { { { } +.+.@.O.O.{ ' / ' ' { f.f.f.f.",
"f.f.f.f.f.O.#.[ @.#.#.#.O.O.[ +.O.o.| { } ^ ' o.O.O.#.#.X.+.#.#.#.#.#.+.X.#.#.#.o.} ' ] { | o.O.O.+.+.#.O.o.{ { / ^ { f.f.f.f.f.",
"f.f.f.f.f.O.+.@.+.@.#.#.#.+.@.+.+.#.#.#.+.@.+.@.O.O.#.+.O.+.@.O.#.O.+.@.+.O.O.O.#.+.@.@.+.#.#.#.+.+.@.+.O.} { ' ' ' ' f.f.f.f.f.",
"f.f.f.f.f.+.#.#.O.+.@.#.+.O.#.#.X.O.#.W [ #.#.+.@.O.+.@.#.#.+.@.#.+.@.#.O.+.@.O.+.@.#.X.W @.#.+.@.#.O.+.X.{ ' ' { { ' f.f.f.f.f.",
"f.f.f.f.f.f.#.O.#.#.+.+.#.#.#.#.#.+.] X 1 a.y.t.e.q.1.,.>.:.:.=.*.-.:.>.,.<.q.w.r.y.a.1 X [ X.@.#.#.#.#.{ ^ ' { { { f.f.f.f.f.f.",
"f.f.f.f.f.f.#.#.#.#.+.[ @.#.#.#.#.+.+.$ X 7.d.d.s.s.d.d.d.d.d.s.s.d.d.d.d.d.s.s.s.d.6.X % +.+.@.#.#.#.o.' ^ ' { { { f.f.f.f.f.f.",
"f.f.f.f.f.f.@.O.O.+.@.#.+.@.#.#.X.o.#.V X X 4.p.d.d.s.d.d.d.s.s.d.s.d.d.d.s.s.d.p.4.X X %.O.#.@.+.O.o.' ' { ' ' { { f.f.f.f.f.f.",
"f.f.f.f.f.f.f.#.+.@.#.#.O.+.@.+.O.O.#.+.$ X X & 8.u.d.s.d.s.d.d.d.d.s.d.s.d.i.9.& o X $ +.#.#.#.@.| ' ' { { { ' ' f.f.f.f.f.f.f.",
"f.f.f.f.f.f.f.` +.#.O.O.#.O.[ +.O.#.#.#.U X X X X X & 3 2.5.8.9.0.9.7.3.2 & X X X X X I #.#.#.#.O.' / { { { { { R f.f.f.f.f.f.f.",
"f.f.f.f.f.f.f.f.+.O.#.O.O.+.@.+.@.#.#.#.X.n X X X X X X X X X X X X X X X X X X X o %.+.@.#.#.#.} ' / { { { { / f.f.f.f.f.f.f.f.",
"f.f.f.f.f.f.f.f.f.+.@.O.+.#.#.#.+.@.#.+.@.#.$.X X X X X X X X X X X X X O r e 0 O $.@.O.@.@.O.' ' { { ' ' { ' f.f.f.f.f.f.f.f.f.",
"f.f.f.f.f.f.f.f.f.f.+.+.@.#.#.#.#.+.X.@.#.#.#.B o o X X - t g f p q O = j j g f f &.#.O.O.+.' / { { { { ' / f.f.f.f.f.f.f.f.f.f.",
"f.f.f.f.f.f.f.f.f.f.[ X.O.#.#.#.#.+.+.@.#.#.#.#.E > X r j j j g f g a p j j g g g j z ..@./ / { { { { { ' ^ f.f.f.f.f.f.f.f.f.f.",
"f.f.f.f.f.f.f.f.f.f.f.| X.@.#.#.X.@.#.+.@.#.#.+.@.O.U l j j g g j g g j j g g j g g j k ~ { { / ' { { ' / f.f.f.f.f.f.f.f.f.f.f.",
"f.f.f.f.f.f.f.f.f.f.f.f.} ' @.+.@.#.#.#.+.@.+.@.O.#.#. .l g g j j j g g g g j j j g g g h _ { { ' ' ' / f.f.f.f.f.f.f.f.f.f.f.f.",
"f.f.f.f.f.f.f.f.f.f.f.f.f.} ^ X.O.O.#.#.#.[ +.O.#.#.#.#. .h j j j j j f g j j j j j f g j x { { { ^ ^ f.f.f.f.f.f.f.f.f.f.f.f.f.",
"f.f.f.f.f.f.f.f.f.f.f.f.f.f.' / { | o.O.+.@.X.@.#.#.#.+.@.( j j j j g g g g j j j g g g g j ! { ' / f.f.f.f.f.f.f.f.f.f.f.f.f.f.",
"f.f.f.f.f.f.f.f.f.f.f.f.f.f.f.f.^ { { ' X.o.o.+.@.#.+.@.O.o.H g j g g j j g g j g g j j g j c ' f.f.f.f.f.f.f.f.f.f.f.f.f.f.f.f.",
"f.f.f.f.f.f.f.f.f.f.f.f.f.f.f.f.f.^ / ' { { { { ' ' { } | } { 9 g g j j j j g g g j j j j g h f.f.f.f.f.f.f.f.f.f.f.f.f.f.f.f.f.",
"f.f.f.f.f.f.f.f.f.f.f.f.f.f.f.f.f.f.f.{ { { { { / ] { { { { { J a g j j j j g f g j j j j g g f.f.f.f.f.f.f.f.f.f.f.f.f.f.f.f.f.",
"f.f.f.f.f.f.f.f.f.f.f.f.f.f.f.f.f.f.f.f.f.{ { / { { / ' { { / / 5 g j j j g g j g g j j g g j f.f.f.f.f.f.f.f.f.f.f.f.f.f.f.f.f.",
"f.f.f.f.f.f.f.f.f.f.f.f.f.f.f.f.f.f.f.f.f.f.f.f.{ { { / { / { _ 5 j g g g g j j j g j g g j j f.f.f.f.f.f.f.f.f.f.f.f.f.f.f.f.f.",
"f.f.f.f.f.f.f.f.f.f.f.f.f.f.f.f.f.f.f.f.f.f.f.f.f.f.f.f.f.^ { G 5 d j f g j j j j j f f j j j f.f.f.f.f.f.f.f.f.f.f.f.f.f.f.f.f.",
"f.f.f.f.f.f.f.f.f.f.f.f.f.f.f.f.f.f.f.f.f.f.f.f.f.f.f.f.f.f.f.5 5 d g g g g j j j g g g j j j f.f.f.f.f.f.f.f.f.f.f.f.f.f.f.f.f.",
"f.f.f.f.f.f.f.f.f.f.f.f.f.f.f.f.f.f.f.f.f.f.f.f.f.f.f.f.f.f.f.4 5 4 g j j g g j g g j j f j f.f.f.f.f.f.f.f.f.f.f.f.f.f.f.f.f.f.",
"f.f.f.f.f.f.f.f.f.f.f.f.f.f.f.f.f.f.f.f.f.f.f.f.f.f.f.f.f.f.f.u 4 4 d j j j g g g j j j j f f.f.f.f.f.f.f.f.f.f.f.f.f.f.f.f.f.f.",
"f.f.f.f.f.f.f.f.f.f.f.f.f.f.f.f.f.f.f.f.f.f.f.f.f.f.f.f.f.f.f.i i 5 5 d j j g g j j j j j f.f.f.f.f.f.f.f.f.f.f.f.f.f.f.f.f.f.f.",
"f.f.f.f.f.f.f.f.f.f.f.f.f.f.f.f.f.f.f.f.f.f.f.f.f.f.f.f.f.f.f.f.5 i 5 5 d g j j g j j d f.f.f.f.f.f.f.f.f.f.f.f.f.f.f.f.f.f.f.f.",
"f.f.f.f.f.f.f.f.f.f.f.f.f.f.f.f.f.f.f.f.f.f.f.f.f.f.f.f.f.f.f.f.f.5 i 5 4 5 s d d s 5 f.f.f.f.f.f.f.f.f.f.f.f.f.f.f.f.f.f.f.f.f.",
"f.f.f.f.f.f.f.f.f.f.f.f.f.f.f.f.f.f.f.f.f.f.f.f.f.f.f.f.f.f.f.f.f.f.f.s 5 5 5 5 5 f.f.f.f.f.f.f.f.f.f.f.f.f.f.f.f.f.f.f.f.f.f.f."
};
