/* XPM */
static char *result[] = {
/* columns rows colors chars-per-pixel */
"64 64 184 2 ",
"   c #000002",
".  c #01000B",
"X  c #030013",
"o  c #05001B",
"O  c #08001F",
"+  c #070023",
"@  c #090024",
"#  c #0A002C",
"$  c #10002E",
"%  c #0C0034",
"&  c #0E003C",
"*  c #110035",
"=  c #11003D",
"-  c #0E0043",
";  c #0F004D",
":  c #120045",
">  c #190044",
",  c #13004C",
"<  c #1A004D",
"1  c #0F0053",
"2  c #140054",
"3  c #1C0053",
"4  c #14005B",
"5  c #1B005B",
"6  c #220056",
"7  c #23005D",
"8  c #150063",
"9  c #1B0063",
"0  c #14006B",
"q  c #1B006B",
"w  c #150072",
"e  c #1C0073",
"r  c #16007B",
"t  c #1D007B",
"y  c #230064",
"u  c #2C0063",
"i  c #23006D",
"p  c #2B006C",
"a  c #230074",
"s  c #2D0074",
"d  c #23007C",
"f  c #2B007C",
"g  c #330075",
"h  c #340079",
"j  c #39007D",
"k  c #160085",
"l  c #1B0083",
"z  c #16008D",
"x  c #1D008B",
"c  c #150095",
"v  c #1C0093",
"b  c #17009B",
"n  c #1B009B",
"m  c #230084",
"M  c #2B0083",
"N  c #24008A",
"B  c #2C008C",
"V  c #340085",
"C  c #3F0083",
"Z  c #32008C",
"A  c #3C008B",
"S  c #230094",
"D  c #2B0093",
"F  c #25009B",
"G  c #2B009C",
"H  c #350092",
"J  c #3C0093",
"K  c #34009B",
"L  c #3B009B",
"P  c #1500A3",
"I  c #1D00A5",
"U  c #1500AC",
"Y  c #1A00AA",
"T  c #0F00B7",
"R  c #1400B2",
"E  c #1900B2",
"W  c #1500BD",
"Q  c #1F00BD",
"!  c #2200A3",
"~  c #2A00A5",
"^  c #2300AC",
"/  c #2C00A9",
"(  c #3300A3",
")  c #3A00A4",
"_  c #3400AC",
"`  c #3D00AA",
"'  c #2200B4",
"]  c #2B00B4",
"[  c #2400BD",
"{  c #2900BB",
"}  c #3400B4",
"|  c #3E00B2",
" . c #3500BD",
".. c #3C00BC",
"X. c #420087",
"o. c #42008D",
"O. c #430093",
"+. c #4C0095",
"@. c #43009C",
"#. c #4C009B",
"$. c #4600A2",
"%. c #4D00A4",
"&. c #4500AD",
"*. c #4E00AD",
"=. c #5100A4",
"-. c #5B00A5",
";. c #5300AA",
":. c #5E00AC",
">. c #4200B3",
",. c #4E00B3",
"<. c #4400BA",
"1. c #4C00BD",
"2. c #5300B5",
"3. c #5900B3",
"4. c #5300BD",
"5. c #5E00BA",
"6. c #6400B3",
"7. c #6100BC",
"8. c #6800BB",
"9. c #0E00C1",
"0. c #0200CF",
"q. c #0C00CF",
"w. c #1400C3",
"e. c #1C00C4",
"r. c #1500CD",
"t. c #1C00CC",
"y. c #0300D2",
"u. c #0B00D4",
"i. c #0600D9",
"p. c #0B00D9",
"a. c #1200D3",
"s. c #1B00D5",
"d. c #1300D9",
"f. c #1B00D9",
"g. c #2400C4",
"h. c #2C00C4",
"j. c #2400CF",
"k. c #2B00CC",
"l. c #3300C5",
"z. c #3C00C1",
"x. c #3300CC",
"c. c #3900CA",
"v. c #2300D4",
"b. c #2C00D4",
"n. c #2300D9",
"m. c #2C00D9",
"M. c #3400D5",
"N. c #3B00D4",
"B. c #3300DA",
"V. c #3C00D9",
"C. c #4300C6",
"Z. c #4B00C4",
"A. c #4400CD",
"S. c #4B00CD",
"D. c #5400C3",
"F. c #5A00C6",
"G. c #5400CB",
"H. c #5D00CC",
"J. c #4400D4",
"K. c #4C00D4",
"L. c #4300DA",
"P. c #4C00D9",
"I. c #5300D4",
"U. c #5B00D4",
"Y. c #5300D9",
"T. c #5C00D9",
"R. c #6100C3",
"E. c #6A00C2",
"W. c #6400CB",
"Q. c #6E00C8",
"!. c #7100C7",
"~. c #7500C9",
"^. c #7C00CE",
"/. c #6300D4",
"(. c #6C00D4",
"). c #6300D9",
"_. c #6D00D9",
"`. c #7100D4",
"'. c #7C00D4",
"]. c #7200D9",
"[. c #7B00D9",
"{. c #8000D6",
"}. c #8100D9",
"|. c None",
/* pixels */
"|.|.|.|.|.|.|.|.|.|.|.|.|.|.|.|.|.|.|.|.|.|.|.|.|.|.|.|.|.|.|.|.|.|.|.|.|.|.|.|.|.|.|.|.|.|.|.|.|.|.|.|.|.|.|.|.|.|.|.|.|.|.|.|.",
"|.|.|.|.|.|.|.|.|.|.|.|.|.|.|.|.|.|.|.|.|.|.|.|.|.|.|.|.|.|.|.|.|.|.|.|.|.|.|.|.|.|.|.|.|.|.|.|.|.|.|.|.|.|.|.|.|.|.|.|.|.|.|.|.",
"|.|.|.|.|.|.|.|.|.|.|.|.|.|.|.|.|.|.|.|.|.|.|.|.|.|.|.|.|.|.|.|.|.|.|.|.|.|.|.|.|.|.|.|.|.|.|.|.|.|.|.|.|.|.|.|.|.|.|.|.|.|.|.|.",
"|.|.|.|.|.|.|.|.|.|.|.|.|.|.|.|.|.|.|.|.|.|.|.|.|.|.|.|.|.|.|.|.|.|.|.|.|.|.|.|.|.|.|.|.|.|.|.|.|.|.|.|.|.|.|.|.|.|.|.|.|.|.|.|.",
"|.|.|.|.|.|.|.|.|.|.|.|.|.|.|.|.|.|.|.|.|.|.|.|.|.|.|.|.|.|.|.|.|.|.|.|.|.|.|.|.|.|.|.|.|.|.|.|.|.|.|.|.|.|.|.|.|.|.|.|.|.|.|.|.",
"|.|.|.|.|.|.|.|.|.|.|.|.|.|.|.|.|.|.|.|.|.|.|.|.|.|.|.|.|.|.|.|.|.|.|.|.|.|.|.|.|.|.|.|.|.|.|.|.|.|.|.|.|.|.|.|.|.|.|.|.|.|.|.|.",
"|.|.|.|.|.|.|.|.|.|.|.|.|.|.|.|.|.|.|.|.|.|.|.|.|.|.|.|.|.|.|.|.|.S.|.|.|.|.|.|.|.|.|.|.|.|.|.|.|.|.|.|.|.|.|.|.|.|.|.|.|.|.|.|.",
"|.|.|.|.|.|.|.|.|.|.|.|.|.|.|.|.|.|.|.|.|.|.|.|.|.|.|.|.|.|.|.|.A.I.U././.|.|.|.|.|.|.|.|.|.|.|.|.|.|.|.|.|.|.|.|.|.|.|.|.|.|.|.",
"|.|.|.|.|.|.|.|.|.|.|.|.|.|.|.|.|.|.|.|.|.|.|.|.|.|.|.|.|.|.|.|.J.K.U.)._.].`.|.|.|.|.|.|.|.|.|.|.|.|.|.|.|.|.|.|.|.|.|.|.|.|.|.",
"|.|.|.|.|.|.|.|.|.|.|.|.|.|.|.|.|.|.|.|.|.|.|.|.|.|.|.|.|.|.|.|.|.S.I.T._.].[.[.'.|.|.|.|.|.|.|.|.|.|.|.|.|.|.|.|.|.|.|.|.|.|.|.",
"|.|.|.|.|.|.|.|.|.|.|.|.|.|.|.|.|.|.|.|.|.|.|.|.|.|.|.|.|.|.|.|.|.A.S.U.).(.`.[.}.{.'.|.|.|.|.|.|.|.|.|.|.|.|.|.|.|.|.|.|.|.|.|.",
"|.|.|.|.|.|.|.|.|.|.|.|.|.|.|.|.|.|.|.|.|.y.u.u.u.s.f.n.v.b.M.N.J.J.K.U./._.!.!.'.{.}.'.|.|.|.|.|.|.|.|.|.|.|.|.|.|.|.|.|.|.|.|.",
"|.|.|.|.|.|.|.|.|.|.|.|.|.|.|.|.|.|.|.|.u.y.q.q.a.f.f.n.m.M.M.V.J.J.K.Y.T._.E.E.!.~.'.{.'.`.|.|.|.|.|.|.|.|.|.|.|.|.|.|.|.|.|.|.",
"|.|.|.|.|.|.|.|.|.|.|.|.|.|.|.|.|.|.q.u.q.|.|.u.a.s.s.v.v.B.B.L.L.L.K.Y.)./.7.:.-.6.!.'.[.[.`.|.|.|.|.|.|.|.|.|.|.|.|.|.|.|.|.|.",
"|.|.|.|.|.|.|.|.|.|.|.|.|.|.|.|.|.a.q.a.q.r.r.a.s.f.v.n.n.m.M.N.L.L.Y.Y.Y.)./.7.6.-.8.~.].].]./.|.|.|.|.|.|.|.|.|.|.|.|.|.|.|.|.",
"|.|.|.|.|.|.|.|.|.|.|.|.|.|.|.|.|.r.s.a.s.f.f.f.f.t.[ g.k.b.x.l._ z.K.I.U.T./.R.W.-.-.E.]._._./.U.|.|.|.|.|.|.|.|.|.|.|.|.|.|.|.",
"|.|.|.|.|.|.|.|.|.|.|.|.|.|.|.|.s.v.v.n.n.n.n.f.f.g.! n x F ~ } _ ) | <.Z.D.D./.H.R.+.5.).).)./.T.|.|.|.|.|.|.|.|.|.|.|.|.|.|.|.",
"|.|.|.|.|.|.|.|.|.|.|.|.|.|.|.|.|.j.v.n.v.g.' ' [ n l e t a e D G ( _ ` >.&.$.,.4.F.%.;./.).T.I.I.K.|.|.|.|.|.|.|.|.|.|.|.|.|.|.",
"|.|.|.|.|.|.|.|.|.|.|.|.|.|.|.k.b.b.m.m.b.{ ' ^ I S r t x d t N m B B H Z V A J ,.D.4.@.D.U.Y.I.K.K.A.|.|.|.|.|.|.|.|.|.|.|.|.|.",
"|.|.|.|.|.|.|.|.|.|.|.|.|.|.N.N.N.M.B.M.M.{ ^ ' ! v l l t l t N d f f y p u V L @.1.Z.O.>.Y.P.K.J.J.N.|.|.|.|.|.|.|.|.|.|.|.|.|.",
"|.|.|.|.|.|.|.|.|.|.|.|.|.J.L.N.N.N.M.M.l.~ F S N t t e q 4 q q w q i < 7 7 f L H &.<.K L J.K.L.N.N.N.|.|.|.|.|.|.|.|.|.|.|.|.|.",
"|.|.|.|.|.|.|.|.|.|.|.|.K.K.J.J.V.V.N. .~ F S l t 0 4 2 8 , 2 4 9 5 5 2 9 7 9 M B Z K M K ..z.V.N.b.M.b.|.|.|.|.|.|.|.|.|.|.|.|.",
"|.|.|.|.|.|.|.|.|.|.|.K.K.K.J.L.J.z.) D N D D N t 9 2 & - & , , , : = 2 5 5 , y M d M a B ( } N.b.b.b.v.|.|.|.|.|.|.|.|.|.|.|.|.",
"|.|.|.|.|.|.|.|.|.|.|.I.K.K.P.P.C.) B D B m e 9 4 : , & : & % % , % * : < 2 = 2 a a a y S G ~ h.b.v.v.v.|.|.|.|.|.|.|.|.|.|.|.|.",
"|.|.|.|.|.|.|.|.|.|.I.I.I.K.Y.Z.>.K K Z i 5 5 , 2 : : - & % # # % # # @ = : : , q a q 4 m S v [ v.f.f.t.|.|.|.|.|.|.|.|.|.|.|.|.",
"|.|.|.|.|.|.|.|.|.I.U.I.Y.Y.I.K.` K B y 2 9 5 2 : % & & % # + o @ + + O % & # % 4 q q 2 t v v g.n.s.f.a.|.|.|.|.|.|.|.|.|.|.|.|.",
"|.|.|.|.|.|.|.|.|.I.I.Y.I.Y.Y.<.L f a y y a 9 2 : % @ + @ + o . X X o O @ # + = 4 8 0 4 w v v e.f.d.d.a.u.q.|.|.|.|.|.|.|.|.|.|.",
"|.|.|.|.|.|.|.|.|.Y.Y.T.Y.Y.Z.L H B M f i q 5 2 = % # o o X . . X X X o + o + & 1 1 1 4 l c n e.d.d.a.u.y.u.|.|.|.|.|.|.|.|.|.|.",
"|.|.|.|.|.|.|.|.K.I.Y.Y.P.Z.L K | ) f a e 9 : & @ O X X . X . . . . . X X . # % - ; 1 4 k b c R r.d.p.p.i.y.0.|.|.|.|.|.|.|.|.|.",
"|.|.|.|.|.|.|.|.J.P.Y.P.S.` ) C.z.~ D m 9 , # + # X X X . . . . . . . X X X + % % - 1 8 k z c U w.w.u.p.y.y.0.|.|.|.|.|.|.|.|.|.",
"|.|.|.|.|.|.|.|.J.P.P.S.` K z. .} D N a , = , & # + o X X .         . . . X o + & - - 0 r r P R R T p.i.y.0.y.|.|.|.|.|.|.|.|.|.",
"|.|.|.|.|.|.|.|.N.L.c.z.K } l.z.~ G N q 2 4 : & # + X X . .         . . X o + & - - 1 8 0 k P U U 9.p.i.y.|.y.|.|.|.|.|.|.|.|.|.",
"|.|.|.|.|.|.|.|.M.V.c._ ( x.x.] S S t 0 8 4 1 % o o X X . .         . . . O @ % % & - ; 0 z b P W p.p.y.|.|.y.|.|.|.|.|.|.|.|.|.",
"|.|.|.|.|.|.|.|.B.M.l.~ ] h.M.h.S l 8 1 0 4 - % # + X X . .         . . . X + # - : : 8 r l k c w.p.p.y.y.y.y.|.|.|.|.|.|.|.|.|.",
"|.|.|.|.|.|.|.|.v.b.k.' ^ h.v.g.^ n r 4 ; 1 & # # # o X . . . . . . . . X X + & % & 4 w e l 0 v W w.p.y.y.y.0.|.|.|.|.|.|.|.|.|.",
"|.|.|.|.|.|.|.|.n.n.g.g.' v.n.v.g.Y z 0 0 8 ; - - # O X . . X . . . . X o + # % : , : 8 l l w c Y a.u.i.y.y.|.|.|.|.|.|.|.|.|.|.",
"|.|.|.|.|.|.|.|.f.f.e.t.s.f.n.t.e.E n k r 0 4 1 - # # + O o X . X . . o O @ = , , 2 q d m t t n t.s.u.u.p.y.|.|.|.|.|.|.|.|.|.|.",
"|.|.|.|.|.|.|.|.u.f.s.f.d.a.d.f.t.U P z k w 0 1 - % # # @ o . X o o O o + # % < 5 q a m a w x g.f.s.a.d.u.|.|.|.|.|.|.|.|.|.|.|.",
"|.|.|.|.|.|.|.|.u.d.d.u.u.a.d.d.a.P P z k k w 1 ; % - & * O O o . @ @ # + * * > 5 a f m N S ] b.v.f.f.d.u.|.|.|.|.|.|.|.|.|.|.|.",
"|.|.|.|.|.|.|.|.p.p.p.u.y.u.i.p.d.U U b z k w ; ; - - & : @ # # o @ $ * = > < 2 y a M B G ] l.b.m.n.v.a.|.|.|.|.|.|.|.|.|.|.|.|.",
"|.|.|.|.|.|.|.|.y.u.p.y.y.0.u.u.d.w.W c w r l 8 0 : = : , % = = * O * > < 6 3 3 7 s M ( ~ _  .M.B.b.v.s.|.|.|.|.|.|.|.|.|.|.|.|.",
"|.|.|.|.|.|.|.|.|.u.i.y.y.0.u.d.d.r.t.P r t l t a 2 2 > > : : < < * $ > 2 7 y y 7 f K ` _ z.N.B.B.b.s.|.|.|.|.|.|.|.|.|.|.|.|.|.",
"|.|.|.|.|.|.|.|.|.y.y.y.|.|.u.d.d.d.f.[ l e l d m 9 9 y 3 3 3 3 7 6 6 < > 6 y 7 p H ) | C.L.V.V.M.b.|.|.|.|.|.|.|.|.|.|.|.|.|.|.",
"|.|.|.|.|.|.|.|.|.y.y.0.|.|.u.a.f.f.f.v.F m q N N f a f p < 3 u p p g g s g h g h @.<.C.K.L.N.N.M.b.|.|.|.|.|.|.|.|.|.|.|.|.|.|.",
"|.|.|.|.|.|.|.|.|.|.|.|.|.|.|.a.f.f.f.m.' ^ D D ( K f V Z g 7 7 p p g g A A @.O.A ) C.I.K.L.L.N.x.M.k.k.v.|.|.|.|.|.|.|.|.|.|.|.",
"|.|.|.|.|.|.|.|.|.|.|.|.|.|.|.a.f.v.v.b.x.z. ._ ) >.L Z L A g u 6 p h j O.@.@.@.$.4.G.Y.Y.P.J.V.N.N.M.M.b.v.|.|.|.|.|.|.|.|.|.|.",
"|.|.|.|.|.|.|.|.|.|.|.|.|.|.|.|.v.m.b.b.B.N.L.<.>.&.&.@.@.X.O.o.j g g +.*.4.4.4.4.G.G.G.G.I.P.K.J.L.V.M.M.|.|.|.|.|.|.|.|.|.|.|.",
"|.|.|.|.|.|.|.|.|.|.|.|.|.|.|.|.s.b.m.M.N.J.K.S.>.,.1.4.*.#.O.o.=.+.X.X.;.4.F.H.F.U.D.2.&.Z.I.I.P.P.J.N.|.|.|.|.|.|.|.|.|.|.|.|.",
"|.|.|.|.|.|.|.|.|.|.|.|.|.|.|.|.|.b.N.x.N.N.P.Y.G.G.T.).).W.%.+.=.=.=.%.#.+.#.#.=.*.*.%.2.D.D.I.Y.K.J.|.|.|.|.|.|.|.|.|.|.|.|.|.",
"|.|.|.|.|.|.|.|.|.|.|.|.|.|.|.|.|.|.M.N.|.A.K.I.Y.).)././.).(.7.7.7.W.(.W.R.5.3.=.;.;.3.F.U.Y.Y.P.J.|.|.|.|.|.|.|.|.|.|.|.|.|.|.",
"|.|.|.|.|.|.|.|.|.|.|.|.|.|.|.|.|.|.|.J.N.|.S.U.T./.).).(.(.).(.(.(.`._._.(._.(.(.W.W.R.W.).U.I.|.|.|.|.|.|.|.|.|.|.|.|.|.|.|.|.",
"|.|.|.|.|.|.|.|.|.|.|.|.|.|.|.|.|.|.|.|.A.K.K.I.U.T././.).(.(.(.(.(._._.(.]._.]._._.)._./.T.U.|.|.|.|.|.|.|.|.|.|.|.|.|.|.|.|.|.",
"|.|.|.|.|.|.|.|.|.|.|.|.|.|.|.|.|.|.|.|.|.|.I.I.G./.H././.(._.(.(.(.(.(.(.`.]._._.`.(.)./.|.|.|.|.|.|.|.|.|.|.|.|.|.|.|.|.|.|.|.",
"|.|.|.|.|.|.|.|.|.|.|.|.|.|.|.|.|.|.|.|.|.|.|.|.|.|./.|.|.|.(.`.`.(.`.(.(.`.`.].(.).(.|.|.|.|.|.|.|.|.|.|.|.|.|.|.|.|.|.|.|.|.|.",
"|.|.|.|.|.|.|.|.|.|.|.|.|.|.|.|.|.|.|.|.|.|.|.|.|.|.|.|.|.|.|.|.W.(.(.(.(.(.(.|.|.|.|.|.|.|.|.|.|.|.|.|.|.|.|.|.|.|.|.|.|.|.|.|.",
"|.|.|.|.|.|.|.|.|.|.|.|.|.|.|.|.|.|.|.|.|.|.|.|.|.|.|.|.|.|.|.|.|.|.|.|.|.|.|.|.|.|.|.|.|.|.|.|.|.|.|.|.|.|.|.|.|.|.|.|.|.|.|.|.",
"|.|.|.|.|.|.|.|.|.|.|.|.|.|.|.|.|.|.|.|.|.|.|.|.|.|.|.|.|.|.|.|.|.|.|.|.|.|.|.|.|.|.|.|.|.|.|.|.|.|.|.|.|.|.|.|.|.|.|.|.|.|.|.|.",
"|.|.|.|.|.|.|.|.|.|.|.|.|.|.|.|.|.|.|.|.|.|.|.|.|.|.|.|.|.|.|.|.|.|.|.|.|.|.|.|.|.|.|.|.|.|.|.|.|.|.|.|.|.|.|.|.|.|.|.|.|.|.|.|.",
"|.|.|.|.|.|.|.|.|.|.|.|.|.|.|.|.|.|.|.|.|.|.|.|.|.|.|.|.|.|.|.|.|.|.|.|.|.|.|.|.|.|.|.|.|.|.|.|.|.|.|.|.|.|.|.|.|.|.|.|.|.|.|.|.",
"|.|.|.|.|.|.|.|.|.|.|.|.|.|.|.|.|.|.|.|.|.|.|.|.|.|.|.|.|.|.|.|.|.|.|.|.|.|.|.|.|.|.|.|.|.|.|.|.|.|.|.|.|.|.|.|.|.|.|.|.|.|.|.|.",
"|.|.|.|.|.|.|.|.|.|.|.|.|.|.|.|.|.|.|.|.|.|.|.|.|.|.|.|.|.|.|.|.|.|.|.|.|.|.|.|.|.|.|.|.|.|.|.|.|.|.|.|.|.|.|.|.|.|.|.|.|.|.|.|.",
"|.|.|.|.|.|.|.|.|.|.|.|.|.|.|.|.|.|.|.|.|.|.|.|.|.|.|.|.|.|.|.|.|.|.|.|.|.|.|.|.|.|.|.|.|.|.|.|.|.|.|.|.|.|.|.|.|.|.|.|.|.|.|.|.",
"|.|.|.|.|.|.|.|.|.|.|.|.|.|.|.|.|.|.|.|.|.|.|.|.|.|.|.|.|.|.|.|.|.|.|.|.|.|.|.|.|.|.|.|.|.|.|.|.|.|.|.|.|.|.|.|.|.|.|.|.|.|.|.|.",
"|.|.|.|.|.|.|.|.|.|.|.|.|.|.|.|.|.|.|.|.|.|.|.|.|.|.|.|.|.|.|.|.|.|.|.|.|.|.|.|.|.|.|.|.|.|.|.|.|.|.|.|.|.|.|.|.|.|.|.|.|.|.|.|."
};
